<svg id="svg" version="1.1" xmlns="http://www.w3.org/2000/svg" xmlns:xlink="http://www.w3.org/1999/xlink" width="400" height="400" viewBox="0, 0, 400,400"><g id="svgg"><path id="path0" d="M40.035 83.665 C 39.576 83.835,39.200 84.171,39.200 84.411 C 39.200 84.651,39.047 84.753,38.861 84.637 C 38.411 84.360,36.800 85.880,36.800 86.582 C 36.800 86.885,36.625 87.193,36.412 87.267 C 36.198 87.340,35.941 87.850,35.841 88.400 C 35.741 88.950,35.632 89.400,35.598 89.400 C 35.308 89.400,35.603 98.102,35.927 99.108 C 36.167 99.852,36.187 100.316,35.974 100.184 C 35.768 100.057,35.600 100.313,35.600 100.753 C 35.600 101.193,35.774 101.660,35.987 101.792 C 36.200 101.923,36.272 102.542,36.147 103.167 C 36.017 103.815,36.111 104.422,36.366 104.579 C 36.612 104.731,36.705 105.031,36.572 105.245 C 36.439 105.460,36.635 106.099,37.007 106.667 C 37.379 107.234,37.477 107.571,37.225 107.416 C 36.784 107.143,36.906 108.384,37.480 110.000 C 37.597 110.330,37.753 111.189,37.828 111.908 C 37.902 112.628,38.104 113.438,38.276 113.708 C 38.447 113.979,38.613 114.335,38.644 114.500 C 38.675 114.665,38.745 114.890,38.800 115.000 C 38.921 115.241,38.950 115.368,39.354 117.397 C 39.529 118.275,39.789 119.175,39.930 119.397 C 40.072 119.619,40.213 119.935,40.244 120.100 C 40.275 120.265,40.336 120.445,40.381 120.500 C 40.425 120.555,40.527 120.960,40.608 121.400 C 40.973 123.384,41.735 125.600,42.052 125.600 C 42.243 125.600,42.366 125.735,42.324 125.900 C 42.151 126.582,42.896 128.800,43.298 128.800 C 43.538 128.800,43.629 128.904,43.502 129.032 C 43.215 129.319,44.370 132.800,44.752 132.800 C 44.905 132.800,45.060 133.202,45.097 133.694 C 45.134 134.186,45.354 134.651,45.585 134.728 C 45.816 134.805,45.903 135.033,45.779 135.234 C 45.655 135.435,45.754 135.600,46.000 135.600 C 46.246 135.600,46.336 135.780,46.200 136.000 C 46.064 136.220,46.154 136.400,46.400 136.400 C 46.646 136.400,46.736 136.580,46.600 136.800 C 46.464 137.020,46.554 137.200,46.800 137.200 C 47.046 137.200,47.136 137.380,47.000 137.600 C 46.864 137.820,46.954 138.000,47.200 138.000 C 47.446 138.000,47.536 138.180,47.400 138.400 C 47.264 138.620,47.373 138.800,47.643 138.800 C 47.913 138.800,48.020 138.914,47.881 139.053 C 47.742 139.192,47.792 139.612,47.992 139.986 C 48.257 140.481,48.199 140.667,47.778 140.667 C 47.460 140.667,47.200 140.487,47.200 140.267 C 47.200 140.047,47.089 139.978,46.952 140.114 C 46.816 140.250,46.442 140.099,46.120 139.777 C 45.799 139.456,45.370 139.295,45.168 139.420 C 44.965 139.545,44.800 139.446,44.800 139.200 C 44.800 138.954,44.620 138.864,44.400 139.000 C 44.180 139.136,44.000 139.092,44.000 138.903 C 44.000 138.527,40.385 136.608,39.900 136.727 C 39.735 136.767,39.600 136.609,39.600 136.376 C 39.600 136.143,39.420 136.064,39.200 136.200 C 38.980 136.336,38.800 136.261,38.800 136.034 C 38.800 135.515,36.590 134.343,36.251 134.683 C 36.113 134.821,36.000 134.713,36.000 134.443 C 36.000 134.173,35.820 134.064,35.600 134.200 C 35.380 134.336,35.200 134.295,35.200 134.110 C 35.200 133.629,32.964 132.370,32.656 132.677 C 32.515 132.818,32.400 132.728,32.400 132.477 C 32.400 131.927,30.206 130.727,29.851 131.083 C 29.713 131.221,29.600 131.113,29.600 130.843 C 29.600 130.573,29.435 130.455,29.234 130.579 C 29.033 130.703,28.807 130.620,28.731 130.394 C 28.581 129.943,26.862 129.813,25.019 130.115 C 21.793 130.642,21.105 134.792,23.463 139.499 C 24.262 141.095,25.080 142.400,25.281 142.400 C 25.483 142.400,25.553 142.553,25.437 142.739 C 25.322 142.926,25.571 143.447,25.990 143.897 C 26.409 144.347,26.643 144.824,26.509 144.957 C 26.376 145.091,26.487 145.200,26.757 145.200 C 27.027 145.200,27.153 145.353,27.037 145.539 C 26.922 145.726,27.147 146.221,27.536 146.639 C 27.926 147.058,28.285 147.580,28.334 147.800 C 28.503 148.555,30.969 152.400,31.285 152.400 C 31.458 152.400,31.600 152.670,31.600 153.000 C 31.600 153.330,31.780 153.600,32.000 153.600 C 32.220 153.600,32.400 153.870,32.400 154.200 C 32.400 154.530,32.560 154.800,32.757 154.800 C 32.953 154.800,33.216 155.205,33.342 155.700 C 33.468 156.195,34.098 157.175,34.742 157.877 C 35.386 158.579,35.837 159.230,35.745 159.322 C 35.652 159.415,36.122 160.074,36.788 160.787 C 37.455 161.501,38.000 162.251,38.000 162.455 C 38.000 162.658,38.269 162.928,38.598 163.054 C 38.926 163.181,39.105 163.430,38.994 163.610 C 38.883 163.789,39.398 164.577,40.137 165.361 C 40.876 166.144,41.421 166.846,41.348 166.919 C 41.275 166.992,42.079 167.987,43.136 169.131 C 44.193 170.274,44.990 171.276,44.909 171.358 C 44.827 171.439,45.973 172.742,47.456 174.253 C 48.938 175.764,49.802 176.756,49.376 176.457 C 48.949 176.158,49.852 177.103,51.381 178.557 C 52.911 180.011,53.996 181.200,53.792 181.200 C 53.588 181.200,54.677 182.485,56.211 184.055 C 57.745 185.625,58.820 186.818,58.600 186.705 C 58.380 186.592,57.844 186.629,57.408 186.787 C 56.833 186.996,56.411 186.813,55.863 186.116 C 55.448 185.589,55.018 185.249,54.907 185.360 C 54.796 185.471,54.442 185.299,54.120 184.977 C 53.799 184.656,53.370 184.495,53.168 184.620 C 52.965 184.745,52.800 184.674,52.800 184.463 C 52.800 184.010,50.571 183.162,50.244 183.490 C 50.120 183.613,49.766 183.504,49.457 183.247 C 49.147 182.990,48.378 182.777,47.747 182.772 C 47.116 182.768,45.160 182.662,43.400 182.536 C 37.775 182.135,31.200 182.077,30.984 182.426 C 30.869 182.613,30.528 182.671,30.228 182.555 C 29.927 182.440,29.567 182.530,29.428 182.755 C 29.288 182.981,28.910 183.064,28.587 182.940 C 28.264 182.816,28.000 182.924,28.000 183.181 C 28.000 183.437,27.819 183.535,27.597 183.398 C 27.376 183.261,27.087 183.430,26.955 183.772 C 26.824 184.115,26.575 184.308,26.403 184.202 C 26.231 184.096,25.845 184.311,25.545 184.681 C 25.077 185.259,25.085 185.310,25.600 185.047 C 25.947 184.870,25.905 184.983,25.500 185.314 C 25.115 185.630,24.800 186.093,24.800 186.344 C 24.800 186.595,24.609 186.800,24.376 186.800 C 24.143 186.800,24.064 186.980,24.200 187.200 C 24.336 187.420,24.237 187.600,23.981 187.600 C 23.724 187.600,23.616 187.864,23.740 188.187 C 23.864 188.510,23.793 188.881,23.583 189.011 C 22.275 189.819,23.282 229.750,24.623 230.264 C 24.938 230.385,25.113 230.617,25.012 230.781 C 24.911 230.944,25.362 231.589,26.014 232.214 C 26.666 232.838,27.200 233.213,27.200 233.046 C 27.200 232.879,27.485 233.027,27.832 233.375 C 28.180 233.723,28.630 233.905,28.832 233.780 C 29.035 233.655,29.200 233.763,29.200 234.019 C 29.200 234.276,29.464 234.384,29.787 234.260 C 30.110 234.136,30.467 234.185,30.581 234.369 C 30.750 234.642,40.200 234.688,40.200 234.416 C 40.200 233.794,46.031 233.898,46.664 234.530 C 47.102 234.968,55.126 234.843,55.404 234.393 C 55.542 234.170,55.828 234.094,56.039 234.224 C 56.249 234.354,57.254 234.058,58.271 233.565 C 59.905 232.775,60.266 232.730,61.360 233.182 C 62.042 233.464,62.915 233.712,63.300 233.733 C 63.685 233.754,64.000 233.934,64.000 234.132 C 64.000 234.331,64.360 234.399,64.800 234.284 C 65.239 234.169,65.680 234.205,65.778 234.364 C 65.876 234.523,67.901 234.642,70.278 234.627 C 74.188 234.603,74.693 234.684,75.573 235.479 C 76.108 235.962,76.693 236.266,76.873 236.155 C 77.053 236.044,77.200 236.135,77.200 236.357 C 77.200 236.854,80.742 239.333,81.452 239.333 C 81.734 239.333,82.062 239.585,82.180 239.892 C 82.298 240.199,82.576 240.339,82.797 240.202 C 83.019 240.065,83.200 240.143,83.200 240.376 C 83.200 240.609,83.470 240.800,83.800 240.800 C 84.130 240.800,84.400 241.010,84.400 241.267 C 84.400 241.523,84.509 241.624,84.643 241.491 C 84.776 241.357,85.253 241.591,85.703 242.010 C 86.153 242.429,86.674 242.678,86.861 242.563 C 87.047 242.447,87.200 242.554,87.200 242.800 C 87.200 243.046,87.380 243.136,87.600 243.000 C 87.820 242.864,88.000 242.973,88.000 243.243 C 88.000 243.513,88.105 243.628,88.234 243.500 C 88.362 243.371,88.800 243.550,89.205 243.897 C 90.095 244.659,97.871 248.290,99.000 248.472 C 99.440 248.542,100.048 248.835,100.352 249.123 C 100.655 249.411,101.150 249.551,101.452 249.436 C 101.753 249.320,102.000 249.419,102.000 249.655 C 102.000 249.892,102.258 249.986,102.574 249.865 C 102.890 249.744,103.208 249.823,103.280 250.040 C 103.353 250.258,103.814 250.466,104.306 250.503 C 104.798 250.540,105.200 250.731,105.200 250.928 C 105.200 251.125,105.464 251.184,105.787 251.060 C 106.110 250.936,106.488 251.019,106.628 251.245 C 106.767 251.470,107.127 251.560,107.428 251.445 C 107.728 251.329,108.088 251.419,108.228 251.645 C 108.367 251.870,108.733 251.958,109.040 251.840 C 109.348 251.722,109.600 251.819,109.600 252.055 C 109.600 252.292,109.870 252.382,110.200 252.255 C 110.530 252.129,110.800 252.220,110.800 252.459 C 110.800 252.698,111.160 252.799,111.600 252.684 C 112.039 252.569,112.505 252.647,112.635 252.857 C 112.765 253.067,113.170 253.202,113.535 253.158 C 113.901 253.113,114.515 253.214,114.900 253.381 C 115.285 253.549,115.870 253.582,116.200 253.455 C 116.530 253.329,116.800 253.397,116.800 253.608 C 116.800 254.038,117.304 254.079,121.660 254.002 C 123.343 253.972,124.831 254.126,124.965 254.344 C 125.240 254.789,124.435 256.842,123.808 257.294 C 123.543 257.485,123.540 257.592,123.800 257.600 C 124.042 257.607,124.031 257.728,123.771 257.906 C 123.358 258.190,119.600 263.852,119.600 264.192 C 119.600 264.284,119.153 264.841,118.607 265.430 C 118.062 266.019,117.701 266.639,117.805 266.808 C 117.910 266.978,117.701 267.229,117.340 267.368 C 116.980 267.506,116.794 267.727,116.926 267.859 C 117.058 267.991,116.769 268.431,116.283 268.836 C 115.797 269.242,115.555 269.579,115.744 269.587 C 115.934 269.594,115.664 269.954,115.144 270.387 C 114.625 270.819,114.355 271.179,114.544 271.187 C 114.734 271.194,114.464 271.554,113.944 271.987 C 113.276 272.543,113.175 272.779,113.600 272.793 C 113.959 272.804,113.816 273.011,113.245 273.306 C 112.720 273.578,112.282 273.980,112.272 274.200 C 112.262 274.420,111.827 274.936,111.306 275.346 C 110.784 275.756,110.431 276.164,110.519 276.253 C 110.608 276.342,110.076 277.056,109.337 277.839 C 108.598 278.623,108.083 279.411,108.194 279.590 C 108.305 279.770,108.115 280.024,107.772 280.155 C 107.430 280.287,107.261 280.576,107.398 280.797 C 107.535 281.019,107.471 281.200,107.255 281.200 C 106.778 281.200,106.120 283.320,106.043 285.100 C 106.012 285.815,106.181 286.400,106.417 286.400 C 106.654 286.400,106.736 286.580,106.600 286.800 C 106.464 287.020,106.554 287.200,106.800 287.200 C 107.046 287.200,107.145 287.366,107.020 287.568 C 106.396 288.578,110.864 290.507,112.074 289.750 C 112.363 289.569,112.780 289.411,113.000 289.398 C 114.468 289.313,116.800 288.665,116.800 288.341 C 116.800 288.128,116.980 288.064,117.200 288.200 C 117.420 288.336,117.600 288.257,117.600 288.024 C 117.600 287.791,117.735 287.634,117.900 287.676 C 118.544 287.840,120.800 287.115,120.800 286.745 C 120.800 286.529,120.980 286.464,121.200 286.600 C 121.420 286.736,121.600 286.695,121.600 286.509 C 121.600 286.323,121.989 286.141,122.464 286.105 C 122.939 286.069,123.434 285.896,123.564 285.720 C 123.694 285.544,124.070 285.345,124.400 285.278 C 125.753 285.004,134.800 280.412,134.800 279.999 C 134.800 279.754,134.980 279.664,135.200 279.800 C 135.420 279.936,135.600 279.827,135.600 279.557 C 135.600 279.287,135.715 279.182,135.856 279.323 C 136.164 279.630,138.400 278.371,138.400 277.890 C 138.400 277.705,138.573 277.660,138.785 277.791 C 138.997 277.922,139.507 277.708,139.919 277.315 C 140.330 276.922,140.922 276.545,141.233 276.478 C 141.545 276.411,141.981 276.141,142.201 275.878 C 142.422 275.615,142.872 275.345,143.201 275.278 C 143.531 275.211,143.998 274.899,144.240 274.584 C 144.481 274.270,144.792 274.125,144.930 274.263 C 145.068 274.402,145.294 274.220,145.432 273.860 C 145.571 273.499,145.822 273.290,145.992 273.395 C 146.161 273.499,146.761 273.157,147.325 272.634 C 147.889 272.112,148.430 271.763,148.527 271.861 C 148.624 271.958,149.355 271.422,150.152 270.671 C 150.948 269.920,151.606 269.417,151.613 269.553 C 151.621 269.689,151.958 269.403,152.364 268.917 C 152.769 268.431,153.193 268.126,153.305 268.238 C 153.417 268.350,153.870 267.983,154.312 267.421 C 154.754 266.859,155.179 266.400,155.258 266.400 C 155.531 266.401,155.350 270.634,155.056 271.110 C 154.893 271.374,154.775 272.447,154.794 273.495 C 154.833 275.592,154.502 279.925,154.159 281.800 C 153.689 284.375,153.518 285.453,153.368 286.800 C 153.236 287.992,152.982 289.350,152.248 292.800 C 152.178 293.130,152.022 293.670,151.903 294.000 C 151.689 294.591,150.674 299.020,150.574 299.800 C 150.546 300.020,150.426 300.470,150.307 300.800 C 149.899 301.934,149.079 305.001,149.020 305.607 C 148.988 305.941,148.835 306.420,148.680 306.671 C 148.524 306.923,148.358 307.595,148.311 308.164 C 148.264 308.734,148.093 309.200,147.931 309.200 C 147.637 309.200,146.965 311.931,147.119 312.500 C 147.164 312.665,147.040 312.800,146.843 312.800 C 145.734 312.800,145.327 319.175,146.356 320.445 C 147.642 322.033,150.484 321.883,152.432 320.124 C 153.306 319.334,153.928 318.594,153.813 318.480 C 153.699 318.365,153.967 318.018,154.409 317.709 C 154.852 317.399,155.121 316.996,155.009 316.815 C 154.897 316.633,155.085 316.376,155.428 316.245 C 155.770 316.113,155.950 315.843,155.828 315.645 C 155.705 315.446,155.899 315.171,156.260 315.032 C 156.620 314.894,156.806 314.673,156.674 314.541 C 156.542 314.409,156.831 313.969,157.317 313.564 C 157.803 313.158,158.074 312.821,157.919 312.813 C 157.765 312.806,158.076 312.327,158.612 311.750 C 159.147 311.172,159.499 310.561,159.395 310.392 C 159.290 310.222,159.499 309.971,159.860 309.832 C 160.220 309.694,160.410 309.476,160.281 309.348 C 160.153 309.220,160.397 308.740,160.824 308.282 C 161.251 307.824,161.600 307.213,161.600 306.925 C 161.600 306.636,161.741 306.400,161.914 306.400 C 162.298 306.400,163.819 303.918,163.692 303.500 C 163.641 303.335,163.791 303.200,164.024 303.200 C 164.257 303.200,164.336 303.020,164.200 302.800 C 164.064 302.580,164.140 302.400,164.369 302.400 C 164.598 302.400,164.898 301.950,165.036 301.400 C 165.174 300.850,165.458 300.400,165.667 300.400 C 165.876 300.400,165.945 300.235,165.821 300.034 C 165.697 299.833,165.738 299.608,165.912 299.534 C 166.449 299.307,168.388 295.721,168.119 295.453 C 167.980 295.314,168.087 295.200,168.357 295.200 C 168.627 295.200,168.736 295.020,168.600 294.800 C 168.464 294.580,168.554 294.400,168.800 294.400 C 169.046 294.400,169.136 294.220,169.000 294.000 C 168.864 293.780,168.954 293.600,169.200 293.600 C 169.446 293.600,169.536 293.420,169.400 293.200 C 169.264 292.980,169.354 292.800,169.600 292.800 C 169.846 292.800,169.936 292.620,169.800 292.400 C 169.664 292.180,169.716 292.000,169.916 292.000 C 170.272 292.000,171.475 289.567,171.690 288.410 C 171.751 288.085,172.025 287.577,172.300 287.281 C 172.731 286.817,172.850 286.352,172.786 285.386 C 172.778 285.268,173.048 284.895,173.386 284.557 C 173.935 284.008,174.183 283.161,174.047 282.300 C 174.021 282.135,174.157 282.000,174.348 282.000 C 174.698 282.000,175.857 278.459,175.690 277.900 C 175.640 277.735,175.799 277.600,176.043 277.600 C 176.286 277.600,176.384 277.336,176.260 277.013 C 176.136 276.690,176.210 276.317,176.424 276.185 C 176.638 276.053,176.709 275.777,176.583 275.572 C 176.456 275.368,176.529 275.200,176.745 275.200 C 177.086 275.200,177.736 273.352,177.799 272.200 C 177.811 271.980,177.932 271.620,178.068 271.400 C 178.554 270.615,179.583 266.695,179.387 266.378 C 179.277 266.201,179.382 265.935,179.621 265.787 C 179.859 265.640,179.958 265.267,179.840 264.960 C 179.722 264.652,179.819 264.400,180.055 264.400 C 180.292 264.400,180.384 264.136,180.260 263.813 C 180.136 263.490,180.210 263.117,180.424 262.985 C 180.638 262.853,180.717 262.590,180.600 262.400 C 180.483 262.210,180.567 261.944,180.787 261.808 C 181.008 261.672,181.186 261.164,181.184 260.680 C 181.179 259.405,181.393 258.258,181.743 257.693 C 181.910 257.422,181.944 257.032,181.817 256.828 C 181.691 256.623,181.773 256.340,182.000 256.200 C 182.227 256.060,182.305 255.769,182.172 255.555 C 182.040 255.340,182.141 254.912,182.397 254.604 C 182.653 254.295,182.822 253.628,182.772 253.121 C 182.722 252.615,182.792 251.930,182.927 251.600 C 183.062 251.270,183.280 250.190,183.410 249.200 C 183.541 248.210,183.742 246.860,183.857 246.200 C 184.123 244.674,184.406 242.010,184.601 239.200 C 184.684 237.990,184.882 236.567,185.039 236.037 C 185.237 235.373,185.188 235.160,184.879 235.351 C 184.230 235.753,185.104 233.377,185.827 232.778 C 186.137 232.520,186.277 232.125,186.138 231.900 C 186.000 231.676,186.406 231.865,187.043 232.322 C 187.679 232.779,188.560 233.208,189.000 233.276 C 189.440 233.344,189.913 233.555,190.051 233.744 C 190.540 234.415,198.641 234.203,199.514 233.496 C 199.868 233.208,200.301 233.208,200.914 233.494 C 203.256 234.589,210.800 233.960,210.800 232.670 C 210.800 232.448,210.918 232.385,211.063 232.530 C 211.208 232.675,211.549 232.608,211.822 232.382 C 212.180 232.084,212.665 232.287,213.565 233.109 C 214.898 234.327,215.845 236.652,215.108 236.897 C 214.812 236.996,214.811 237.273,215.105 237.823 C 215.337 238.255,215.432 239.099,215.317 239.698 C 215.203 240.297,215.245 241.105,215.410 241.493 C 215.575 241.882,215.671 242.794,215.623 243.521 C 215.575 244.247,215.838 245.304,216.209 245.870 C 216.580 246.436,216.684 246.776,216.441 246.626 C 216.194 246.473,216.000 246.617,216.000 246.953 C 216.000 247.283,216.151 247.646,216.335 247.760 C 216.519 247.873,216.694 248.628,216.724 249.436 C 216.755 250.244,216.908 251.287,217.064 251.753 C 217.221 252.219,217.305 252.988,217.251 253.462 C 217.197 253.936,217.346 254.443,217.583 254.589 C 217.819 254.736,217.909 255.023,217.783 255.228 C 217.656 255.432,217.694 255.825,217.866 256.100 C 218.038 256.375,218.195 256.780,218.215 257.000 C 218.389 258.955,218.973 261.660,219.259 261.837 C 219.454 261.957,219.509 262.223,219.383 262.428 C 219.256 262.632,219.293 263.025,219.465 263.300 C 219.636 263.575,219.829 264.160,219.893 264.600 C 219.957 265.040,220.126 265.670,220.268 266.000 C 220.410 266.330,220.493 266.811,220.452 267.070 C 220.412 267.328,220.556 267.649,220.772 267.783 C 220.988 267.916,221.064 268.290,220.940 268.613 C 220.816 268.936,220.908 269.200,221.145 269.200 C 221.381 269.200,221.471 269.470,221.345 269.800 C 221.218 270.130,221.314 270.400,221.557 270.400 C 221.801 270.400,221.964 270.535,221.919 270.700 C 221.768 271.260,222.430 273.974,223.088 275.490 C 223.448 276.321,223.765 277.180,223.793 277.400 C 223.933 278.524,224.529 280.000,224.843 280.000 C 225.040 280.000,225.179 280.135,225.153 280.300 C 225.017 281.161,225.265 282.008,225.814 282.557 C 226.152 282.895,226.422 283.268,226.414 283.386 C 226.406 283.504,226.413 283.645,226.430 283.700 C 226.446 283.755,226.541 284.250,226.641 284.800 C 226.741 285.350,226.999 285.860,227.214 285.934 C 227.429 286.008,227.503 286.233,227.379 286.434 C 227.255 286.635,227.305 286.800,227.491 286.800 C 227.677 286.800,227.860 287.202,227.897 287.694 C 227.934 288.186,228.154 288.651,228.385 288.728 C 228.616 288.805,228.712 289.018,228.599 289.202 C 228.485 289.385,228.619 289.779,228.896 290.077 C 229.173 290.375,229.455 290.885,229.521 291.210 C 229.737 292.260,233.751 300.000,234.081 300.000 C 234.256 300.000,234.400 300.270,234.400 300.600 C 234.400 300.930,234.591 301.200,234.824 301.200 C 235.057 301.200,235.136 301.380,235.000 301.600 C 234.864 301.820,234.954 302.000,235.200 302.000 C 235.446 302.000,235.553 302.153,235.437 302.339 C 235.322 302.526,235.547 303.021,235.936 303.439 C 236.326 303.858,236.678 304.380,236.719 304.600 C 236.760 304.820,237.020 305.270,237.297 305.600 C 237.574 305.930,238.021 306.695,238.291 307.300 C 238.562 307.905,238.977 308.400,239.215 308.400 C 239.453 308.400,239.535 308.581,239.398 308.803 C 239.261 309.024,239.430 309.313,239.772 309.445 C 240.115 309.576,240.295 309.846,240.172 310.045 C 240.050 310.243,240.230 310.513,240.572 310.645 C 240.915 310.776,241.095 311.046,240.972 311.245 C 240.850 311.443,241.030 311.713,241.372 311.845 C 241.715 311.976,241.907 312.227,241.799 312.401 C 241.691 312.576,242.119 313.271,242.749 313.945 C 243.379 314.620,243.803 315.264,243.690 315.377 C 243.578 315.489,243.780 315.694,244.140 315.832 C 244.501 315.971,244.703 316.233,244.591 316.415 C 244.479 316.596,244.748 316.999,245.191 317.309 C 245.633 317.618,245.914 317.953,245.815 318.052 C 245.716 318.150,246.032 318.683,246.518 319.235 C 247.003 319.786,247.310 320.041,247.200 319.800 C 247.090 319.559,247.339 319.731,247.753 320.181 C 248.167 320.632,248.662 320.955,248.853 320.900 C 249.044 320.845,249.200 320.952,249.200 321.139 C 249.200 321.685,252.756 321.408,253.302 320.819 C 253.705 320.385,253.686 320.338,253.200 320.571 C 252.870 320.730,252.940 320.583,253.356 320.245 C 254.107 319.634,254.590 316.305,254.058 315.400 C 253.929 315.180,253.778 314.710,253.722 314.355 C 253.667 314.000,253.408 313.190,253.147 312.555 C 252.885 311.920,252.708 311.175,252.753 310.900 C 252.798 310.625,252.637 310.400,252.394 310.400 C 252.151 310.400,252.044 310.252,252.156 310.071 C 252.268 309.891,252.130 309.301,251.850 308.761 C 251.570 308.221,251.408 307.575,251.491 307.326 C 251.574 307.077,251.461 306.761,251.239 306.624 C 251.017 306.487,250.936 306.110,251.060 305.787 C 251.184 305.464,251.086 305.200,250.843 305.200 C 250.599 305.200,250.433 305.065,250.474 304.900 C 250.619 304.308,249.539 300.009,249.191 299.794 C 248.995 299.673,248.936 299.310,249.060 298.987 C 249.184 298.664,249.131 298.400,248.943 298.400 C 248.754 298.400,248.546 297.557,248.479 296.528 C 248.413 295.498,248.238 294.463,248.091 294.228 C 247.944 293.993,247.771 293.440,247.707 293.000 C 247.643 292.560,247.481 291.930,247.347 291.600 C 247.056 290.882,246.821 289.034,246.820 287.453 C 246.820 286.822,246.620 286.065,246.376 285.770 C 246.131 285.476,246.026 285.082,246.141 284.895 C 246.256 284.709,246.182 283.846,245.976 282.978 C 245.563 281.240,245.187 277.316,245.019 273.000 C 244.959 271.460,244.840 269.345,244.755 268.300 C 244.585 266.214,244.747 265.983,245.517 267.216 C 245.797 267.664,246.181 267.936,246.369 267.819 C 246.558 267.702,247.010 268.061,247.374 268.616 C 247.738 269.171,248.188 269.531,248.376 269.415 C 248.563 269.299,248.819 269.474,248.946 269.802 C 249.072 270.131,249.431 270.400,249.745 270.400 C 250.058 270.400,250.422 270.681,250.554 271.025 C 250.686 271.369,250.976 271.539,251.197 271.402 C 251.419 271.265,251.600 271.313,251.600 271.509 C 251.600 271.704,252.410 272.446,253.400 273.157 C 254.390 273.868,255.200 274.350,255.200 274.229 C 255.200 274.107,255.566 274.321,256.013 274.704 C 256.460 275.087,256.910 275.355,257.013 275.300 C 257.116 275.245,257.567 275.567,258.015 276.015 C 258.463 276.463,258.984 276.734,259.173 276.617 C 259.362 276.500,259.624 276.685,259.755 277.028 C 259.887 277.370,260.176 277.539,260.397 277.402 C 260.619 277.265,260.800 277.373,260.800 277.643 C 260.800 277.913,260.909 278.024,261.043 277.891 C 261.176 277.757,261.653 277.991,262.103 278.410 C 262.553 278.829,263.074 279.078,263.261 278.963 C 263.447 278.847,263.600 278.954,263.600 279.200 C 263.600 279.446,263.780 279.536,264.000 279.400 C 264.220 279.264,264.400 279.315,264.400 279.513 C 264.400 280.007,268.218 282.048,268.541 281.726 C 268.683 281.583,268.800 281.687,268.800 281.957 C 268.800 282.227,268.980 282.336,269.200 282.200 C 269.420 282.064,269.600 282.154,269.600 282.400 C 269.600 282.646,269.780 282.736,270.000 282.600 C 270.220 282.464,270.400 282.554,270.400 282.800 C 270.400 283.046,270.580 283.136,270.800 283.000 C 271.020 282.864,271.200 282.931,271.200 283.149 C 271.200 283.547,272.737 284.228,273.300 284.079 C 273.465 284.036,273.600 284.158,273.600 284.351 C 273.600 284.744,275.780 285.733,276.644 285.733 C 276.950 285.733,277.200 285.869,277.200 286.036 C 277.200 286.334,279.822 287.381,280.600 287.393 C 280.820 287.397,281.106 287.544,281.236 287.720 C 281.366 287.896,281.861 288.069,282.336 288.105 C 282.811 288.141,283.200 288.320,283.200 288.503 C 283.200 288.685,283.425 288.798,283.700 288.753 C 283.975 288.708,284.740 288.903,285.400 289.185 C 287.142 289.931,290.400 290.219,290.400 289.627 C 290.400 289.366,290.559 289.251,290.753 289.371 C 291.235 289.669,293.264 288.027,292.980 287.568 C 292.855 287.366,292.954 287.200,293.200 287.200 C 293.446 287.200,293.536 287.020,293.400 286.800 C 293.264 286.580,293.337 286.400,293.563 286.400 C 293.807 286.400,293.913 285.628,293.826 284.500 C 293.657 282.328,293.284 281.200,292.734 281.200 C 292.524 281.200,292.450 281.043,292.569 280.850 C 292.688 280.658,292.347 280.028,291.812 279.450 C 291.276 278.873,290.965 278.394,291.119 278.387 C 291.274 278.379,291.003 278.042,290.517 277.636 C 290.031 277.231,289.726 276.807,289.838 276.695 C 289.950 276.583,289.558 276.111,288.967 275.646 C 288.376 275.181,288.051 274.794,288.246 274.787 C 288.441 274.779,288.231 274.464,287.779 274.087 C 287.328 273.709,286.916 273.220,286.864 273.000 C 286.812 272.780,286.252 272.015,285.619 271.300 C 284.986 270.585,284.588 269.994,284.734 269.987 C 284.880 269.979,284.631 269.664,284.179 269.287 C 283.728 268.909,283.288 268.420,283.202 268.200 C 282.902 267.429,277.871 259.797,277.503 259.555 C 277.299 259.421,277.192 259.202,277.266 259.068 C 277.340 258.935,277.100 258.475,276.733 258.047 C 276.366 257.618,276.171 257.162,276.300 257.034 C 276.428 256.905,276.323 256.800,276.067 256.800 C 275.810 256.800,275.629 256.665,275.664 256.500 C 275.698 256.335,275.586 255.877,275.414 255.483 C 274.956 254.432,275.123 254.381,279.527 254.221 C 281.742 254.141,283.773 253.940,284.040 253.775 C 284.307 253.610,285.352 253.404,286.363 253.317 C 287.373 253.231,288.357 253.003,288.549 252.811 C 288.741 252.619,289.127 252.551,289.408 252.659 C 289.689 252.766,290.033 252.670,290.172 252.445 C 290.312 252.219,290.690 252.136,291.013 252.260 C 291.336 252.384,291.600 252.276,291.600 252.019 C 291.600 251.763,291.766 251.655,291.968 251.780 C 292.462 252.086,300.000 249.590,300.000 249.122 C 300.000 248.919,300.180 248.864,300.400 249.000 C 300.620 249.136,300.800 249.087,300.800 248.890 C 300.800 248.694,301.055 248.533,301.368 248.533 C 302.310 248.533,305.600 247.160,305.600 246.767 C 305.600 246.565,305.735 246.436,305.900 246.479 C 306.463 246.628,308.000 245.947,308.000 245.549 C 308.000 245.331,308.180 245.264,308.400 245.400 C 308.620 245.536,308.800 245.446,308.800 245.200 C 308.800 244.954,308.980 244.864,309.200 245.000 C 309.420 245.136,309.600 245.046,309.600 244.800 C 309.600 244.554,309.780 244.464,310.000 244.600 C 310.220 244.736,310.400 244.627,310.400 244.357 C 310.400 244.087,310.515 243.982,310.656 244.123 C 310.964 244.430,313.200 243.171,313.200 242.690 C 313.200 242.505,313.353 242.447,313.539 242.563 C 313.726 242.678,314.247 242.429,314.697 242.010 C 315.147 241.591,315.620 241.353,315.748 241.481 C 315.876 241.610,316.094 241.420,316.232 241.060 C 316.371 240.699,316.645 240.504,316.842 240.626 C 317.039 240.748,317.200 240.646,317.200 240.400 C 317.200 240.154,317.381 240.065,317.603 240.202 C 317.824 240.339,318.113 240.170,318.245 239.828 C 318.376 239.485,318.633 239.297,318.815 239.409 C 318.996 239.521,319.428 239.210,319.773 238.718 C 320.118 238.225,320.406 237.997,320.413 238.211 C 320.420 238.425,320.690 238.251,321.013 237.824 C 321.336 237.396,321.600 237.177,321.600 237.336 C 321.600 237.495,322.545 236.928,323.700 236.076 C 325.793 234.531,329.329 233.747,333.274 233.953 C 333.864 233.984,334.449 233.844,334.574 233.642 C 334.699 233.440,335.140 233.364,335.555 233.472 C 335.970 233.581,336.420 233.491,336.555 233.272 C 336.690 233.054,337.161 232.969,337.600 233.084 C 338.040 233.199,338.400 233.098,338.400 232.859 C 338.400 232.620,338.670 232.529,339.000 232.655 C 339.330 232.782,339.600 232.692,339.600 232.455 C 339.600 232.219,339.870 232.129,340.200 232.255 C 340.530 232.382,340.800 232.276,340.800 232.019 C 340.800 231.763,340.980 231.664,341.200 231.800 C 341.420 231.936,341.600 231.873,341.600 231.659 C 341.600 231.224,342.342 231.261,343.100 231.735 C 343.375 231.907,343.605 231.902,343.612 231.724 C 343.619 231.546,343.810 231.719,344.037 232.108 C 344.264 232.498,344.618 232.712,344.825 232.585 C 345.031 232.457,345.200 232.554,345.200 232.800 C 345.200 233.046,345.380 233.136,345.600 233.000 C 345.820 232.864,346.000 232.963,346.000 233.219 C 346.000 233.476,346.270 233.582,346.600 233.455 C 346.930 233.329,347.200 233.371,347.200 233.549 C 347.200 234.569,366.412 234.381,369.389 233.333 C 371.551 232.571,375.640 228.000,374.159 228.000 C 374.018 228.000,374.077 227.775,374.290 227.500 C 375.516 225.921,374.510 215.600,373.131 215.600 C 372.923 215.600,372.844 215.452,372.956 215.271 C 373.068 215.091,372.791 214.627,372.341 214.242 C 371.727 213.716,371.604 213.323,371.850 212.671 C 372.030 212.192,372.183 209.775,372.189 207.300 C 372.195 204.825,372.330 202.800,372.490 202.800 C 372.793 202.800,374.149 200.490,374.249 199.800 C 374.281 199.580,374.341 199.220,374.381 199.000 C 374.679 197.373,374.389 189.396,374.028 189.276 C 373.790 189.197,373.697 188.967,373.821 188.766 C 373.945 188.565,373.846 188.400,373.600 188.400 C 373.354 188.400,373.265 188.219,373.402 187.997 C 373.539 187.776,373.370 187.487,373.028 187.355 C 372.685 187.224,372.488 186.981,372.590 186.816 C 372.692 186.651,372.331 186.099,371.788 185.588 C 371.244 185.078,370.800 184.795,370.800 184.959 C 370.800 185.123,370.515 184.973,370.168 184.625 C 369.820 184.277,369.385 184.085,369.202 184.199 C 369.018 184.312,368.805 184.216,368.728 183.984 C 368.319 182.758,348.935 182.666,348.032 183.886 C 347.904 184.059,347.350 184.250,346.800 184.312 C 346.250 184.373,345.740 184.599,345.666 184.814 C 345.592 185.029,345.367 185.103,345.166 184.979 C 344.965 184.855,344.800 184.954,344.800 185.200 C 344.800 185.446,344.640 185.549,344.445 185.428 C 344.250 185.307,343.868 185.477,343.596 185.804 C 343.078 186.429,342.000 186.622,342.000 186.090 C 342.000 185.919,343.340 184.449,344.977 182.822 C 346.615 181.196,347.938 179.760,347.918 179.632 C 347.898 179.505,349.252 177.979,350.929 176.242 C 352.605 174.506,353.881 172.931,353.764 172.742 C 353.648 172.554,353.738 172.400,353.965 172.400 C 354.367 172.400,358.575 167.403,358.398 167.135 C 358.349 167.061,358.957 166.293,359.749 165.428 C 360.541 164.563,361.121 163.787,361.037 163.704 C 360.953 163.620,361.485 162.897,362.218 162.097 C 362.950 161.297,363.472 160.517,363.377 160.363 C 363.282 160.210,363.485 159.976,363.828 159.845 C 364.170 159.713,364.339 159.424,364.202 159.203 C 364.065 158.981,364.119 158.800,364.323 158.800 C 364.693 158.800,367.031 155.522,366.845 155.264 C 366.791 155.189,367.074 154.879,367.473 154.576 C 367.873 154.273,368.074 154.020,367.919 154.013 C 367.765 154.006,368.081 153.522,368.623 152.937 C 369.165 152.353,369.527 151.794,369.428 151.695 C 369.329 151.596,369.591 151.147,370.010 150.697 C 370.429 150.247,370.678 149.726,370.563 149.539 C 370.447 149.353,370.543 149.200,370.776 149.200 C 371.009 149.200,371.200 149.012,371.200 148.783 C 371.200 148.554,371.554 147.987,371.986 147.523 C 372.419 147.059,372.678 146.526,372.563 146.339 C 372.447 146.153,372.540 146.000,372.769 146.000 C 372.998 146.000,373.298 145.550,373.436 145.000 C 373.574 144.450,373.814 144.000,373.969 144.000 C 374.301 144.000,375.778 141.139,375.672 140.700 C 375.632 140.535,375.791 140.400,376.024 140.400 C 376.257 140.400,376.336 140.220,376.200 140.000 C 376.064 139.780,376.143 139.600,376.376 139.600 C 376.609 139.600,376.800 139.317,376.800 138.971 C 376.800 138.626,377.071 138.072,377.401 137.742 C 378.507 136.635,378.113 132.451,376.777 131.115 C 375.611 129.949,371.200 129.402,371.200 130.424 C 371.200 130.657,371.020 130.736,370.800 130.600 C 370.580 130.464,370.400 130.513,370.400 130.710 C 370.400 130.906,370.174 131.067,369.898 131.067 C 369.296 131.067,365.923 133.135,365.506 133.760 C 365.344 134.002,365.209 134.061,365.206 133.892 C 365.197 133.422,362.000 135.156,362.000 135.632 C 362.000 135.860,361.820 135.936,361.600 135.800 C 361.380 135.664,361.200 135.754,361.200 136.000 C 361.200 136.246,361.020 136.336,360.800 136.200 C 360.580 136.064,360.400 136.173,360.400 136.443 C 360.400 136.713,360.286 136.820,360.147 136.681 C 359.879 136.412,356.293 138.351,356.066 138.888 C 355.992 139.062,355.767 139.103,355.566 138.979 C 355.365 138.855,355.200 138.954,355.200 139.200 C 355.200 139.446,355.035 139.545,354.832 139.420 C 354.630 139.295,354.201 139.456,353.880 139.777 C 353.558 140.099,353.184 140.250,353.048 140.114 C 352.911 139.978,352.800 140.087,352.800 140.357 C 352.800 140.627,352.635 140.745,352.434 140.621 C 352.233 140.497,351.968 140.621,351.846 140.898 C 351.723 141.174,351.663 141.040,351.712 140.600 C 351.760 140.160,352.027 139.560,352.304 139.268 C 352.581 138.975,352.705 138.570,352.580 138.368 C 352.455 138.165,352.543 138.000,352.776 138.000 C 353.009 138.000,353.200 137.640,353.200 137.200 C 353.200 136.760,353.391 136.400,353.624 136.400 C 353.857 136.400,353.936 136.220,353.800 136.000 C 353.664 135.780,353.754 135.600,354.000 135.600 C 354.246 135.600,354.336 135.420,354.200 135.200 C 354.064 134.980,354.124 134.800,354.333 134.800 C 354.666 134.800,355.378 132.861,355.199 132.445 C 355.162 132.359,355.309 132.179,355.526 132.045 C 355.743 131.910,355.983 131.440,356.060 131.000 C 356.137 130.560,356.425 129.962,356.700 129.671 C 357.127 129.220,357.301 128.352,357.166 127.345 C 357.147 127.204,357.336 126.963,357.586 126.809 C 357.836 126.654,358.069 126.139,358.105 125.664 C 358.141 125.189,358.331 124.800,358.528 124.800 C 358.725 124.800,358.790 124.552,358.674 124.249 C 358.558 123.946,358.623 123.537,358.820 123.340 C 359.016 123.144,359.259 122.537,359.359 121.991 C 359.459 121.446,359.575 120.910,359.618 120.800 C 359.660 120.690,359.673 120.465,359.647 120.300 C 359.621 120.135,359.760 120.000,359.955 120.000 C 360.257 120.000,360.890 117.921,360.991 116.600 C 361.007 116.380,361.162 115.975,361.334 115.700 C 361.506 115.425,361.525 115.200,361.375 115.200 C 361.225 115.200,361.298 114.964,361.538 114.675 C 361.917 114.218,362.081 113.521,362.547 110.393 C 362.597 110.059,362.782 109.552,362.959 109.266 C 363.136 108.981,363.174 108.640,363.044 108.510 C 362.913 108.380,362.997 108.044,363.230 107.764 C 363.463 107.484,363.726 106.477,363.815 105.527 C 363.904 104.577,364.101 103.367,364.252 102.837 C 364.456 102.121,364.398 101.954,364.023 102.186 C 363.631 102.428,363.634 102.288,364.040 101.548 C 364.325 101.027,364.613 100.060,364.679 99.400 C 364.745 98.740,364.907 97.570,365.041 96.800 C 365.513 94.065,365.671 91.164,365.385 90.487 C 365.225 90.109,365.036 89.353,364.965 88.807 C 364.893 88.261,364.584 87.631,364.278 87.407 C 363.971 87.183,363.677 86.820,363.624 86.600 C 363.159 84.667,356.800 81.900,356.800 83.629 C 356.800 83.859,356.620 83.936,356.400 83.800 C 356.180 83.664,356.000 83.743,356.000 83.976 C 356.000 84.209,355.859 84.355,355.686 84.300 C 355.513 84.245,354.676 84.875,353.825 85.700 C 352.974 86.525,352.440 87.205,352.639 87.212 C 352.837 87.219,352.681 87.410,352.292 87.637 C 351.902 87.864,351.688 88.218,351.815 88.425 C 351.943 88.631,351.857 88.800,351.624 88.800 C 351.391 88.800,351.200 89.070,351.200 89.400 C 351.200 89.730,351.056 90.000,350.880 90.000 C 350.543 90.000,348.171 93.564,348.240 93.966 C 348.262 94.095,347.992 94.419,347.640 94.687 C 347.288 94.955,347.126 95.180,347.281 95.187 C 347.435 95.194,347.120 95.676,346.581 96.258 C 346.041 96.841,345.600 97.478,345.600 97.675 C 345.600 97.872,345.240 98.420,344.800 98.892 C 344.360 99.364,344.000 99.968,344.000 100.233 C 344.000 100.498,343.719 100.822,343.375 100.954 C 343.031 101.086,342.850 101.357,342.972 101.555 C 343.095 101.754,342.915 102.024,342.572 102.155 C 342.230 102.287,342.050 102.557,342.172 102.755 C 342.295 102.954,342.126 103.219,341.798 103.346 C 341.469 103.472,341.200 103.807,341.200 104.091 C 341.200 104.375,340.822 104.843,340.361 105.131 C 339.900 105.420,339.622 105.755,339.744 105.877 C 339.866 105.999,339.569 106.431,339.083 106.836 C 338.597 107.242,338.359 107.579,338.554 107.587 C 338.749 107.594,338.432 107.974,337.850 108.432 C 337.268 108.890,336.895 109.430,337.020 109.632 C 337.145 109.834,337.076 110.000,336.867 110.000 C 336.657 110.000,335.169 111.575,333.560 113.500 C 331.951 115.425,329.456 118.244,328.017 119.765 C 326.578 121.287,325.670 122.377,326.000 122.189 C 326.516 121.894,326.524 121.941,326.055 122.519 C 325.755 122.889,325.322 123.075,325.093 122.934 C 324.864 122.792,324.790 122.860,324.929 123.085 C 325.227 123.567,323.858 124.925,323.468 124.534 C 323.320 124.387,323.200 124.577,323.200 124.957 C 323.200 125.337,323.020 125.536,322.800 125.400 C 322.578 125.263,322.397 125.564,322.394 126.076 C 322.390 126.647,322.272 126.818,322.086 126.525 C 321.883 126.207,320.993 126.862,319.392 128.507 C 318.076 129.859,316.877 130.932,316.728 130.892 C 316.578 130.851,315.964 131.399,315.363 132.109 C 314.763 132.819,314.131 133.358,313.959 133.308 C 313.787 133.257,313.300 133.656,312.876 134.194 C 312.453 134.732,312.029 135.096,311.936 135.002 C 311.842 134.908,311.008 135.524,310.083 136.370 C 309.157 137.216,308.394 137.793,308.387 137.654 C 308.379 137.514,308.042 137.797,307.636 138.283 C 307.231 138.769,306.812 139.078,306.705 138.971 C 306.597 138.864,305.951 139.298,305.269 139.936 C 304.586 140.573,303.936 141.003,303.823 140.890 C 303.711 140.778,303.506 140.980,303.368 141.340 C 303.229 141.701,302.954 141.895,302.755 141.772 C 302.557 141.650,302.287 141.830,302.155 142.172 C 302.024 142.515,301.754 142.695,301.555 142.572 C 301.357 142.450,301.087 142.630,300.955 142.972 C 300.824 143.315,300.566 143.503,300.383 143.389 C 300.199 143.276,299.871 143.502,299.653 143.892 C 299.435 144.281,299.109 144.571,298.928 144.536 C 298.446 144.443,296.400 145.716,296.400 146.110 C 296.400 146.295,296.227 146.340,296.015 146.209 C 295.803 146.078,295.293 146.292,294.881 146.685 C 294.470 147.078,293.878 147.455,293.567 147.522 C 293.255 147.589,292.802 147.901,292.560 148.216 C 292.319 148.530,292.004 148.670,291.860 148.527 C 291.717 148.384,291.600 148.487,291.600 148.757 C 291.600 149.027,291.420 149.136,291.200 149.000 C 290.980 148.864,290.800 148.954,290.800 149.200 C 290.800 149.446,290.619 149.535,290.397 149.398 C 290.176 149.261,289.887 149.430,289.755 149.772 C 289.624 150.115,289.355 150.296,289.158 150.174 C 288.961 150.052,288.800 150.154,288.800 150.400 C 288.800 150.646,288.620 150.736,288.400 150.600 C 288.180 150.464,288.000 150.543,288.000 150.776 C 288.000 151.009,287.865 151.164,287.700 151.121 C 287.154 150.977,285.600 151.647,285.600 152.027 C 285.600 152.232,285.465 152.364,285.300 152.320 C 284.872 152.205,277.049 156.014,276.755 156.480 C 276.621 156.694,276.392 156.843,276.247 156.811 C 275.822 156.719,273.200 157.738,273.200 157.995 C 273.200 158.124,272.811 158.259,272.336 158.295 C 271.861 158.331,271.324 158.594,271.142 158.880 C 270.961 159.166,270.809 159.266,270.806 159.103 C 270.799 158.737,267.493 160.007,267.155 160.507 C 267.021 160.706,266.793 160.839,266.649 160.804 C 266.021 160.649,264.000 161.299,264.000 161.655 C 264.000 161.871,263.852 161.956,263.671 161.844 C 263.491 161.732,262.901 161.870,262.361 162.150 C 261.821 162.430,261.159 162.586,260.890 162.497 C 260.620 162.407,260.400 162.490,260.400 162.682 C 260.400 162.873,260.085 163.054,259.700 163.084 C 259.315 163.115,258.460 163.362,257.800 163.634 C 257.140 163.906,256.375 164.092,256.100 164.047 C 255.825 164.002,255.600 164.147,255.600 164.370 C 255.600 164.593,255.330 164.671,255.000 164.545 C 254.670 164.418,254.400 164.508,254.400 164.745 C 254.400 164.981,254.130 165.071,253.800 164.945 C 253.470 164.818,253.200 164.908,253.200 165.145 C 253.200 165.381,252.948 165.478,252.640 165.360 C 252.333 165.242,251.973 165.321,251.840 165.535 C 251.708 165.750,251.239 165.831,250.800 165.716 C 250.360 165.601,250.000 165.663,249.999 165.853 C 249.999 166.044,249.415 166.241,248.702 166.292 C 247.989 166.342,247.344 166.568,247.269 166.794 C 247.193 167.020,246.967 167.103,246.766 166.979 C 246.565 166.855,246.183 166.887,245.917 167.051 C 245.651 167.216,244.979 167.398,244.423 167.458 C 243.867 167.517,243.349 167.754,243.272 167.985 C 243.195 168.216,242.967 168.303,242.766 168.179 C 242.565 168.055,242.400 168.173,242.400 168.443 C 242.400 168.713,242.283 168.816,242.140 168.673 C 241.996 168.530,241.623 168.725,241.310 169.106 C 240.931 169.568,240.827 169.600,241.001 169.200 C 241.144 168.870,240.888 169.024,240.433 169.542 C 239.977 170.060,239.694 170.629,239.805 170.808 C 239.915 170.986,239.785 171.205,239.515 171.295 C 238.859 171.514,238.991 175.678,239.772 179.400 C 239.910 180.060,240.115 181.505,240.227 182.612 L 240.430 184.624 238.813 184.470 C 237.924 184.385,236.882 184.448,236.498 184.611 C 236.114 184.773,235.366 184.963,234.836 185.032 C 234.306 185.102,233.766 185.303,233.636 185.480 C 233.506 185.656,233.220 185.803,233.000 185.807 C 232.780 185.810,231.903 186.056,231.052 186.353 C 229.636 186.848,229.373 186.820,227.954 186.022 C 227.101 185.543,226.223 185.262,226.002 185.399 C 225.781 185.535,225.600 185.444,225.600 185.197 C 225.600 184.935,225.279 184.848,224.834 184.989 C 224.412 185.123,223.952 185.045,223.810 184.816 C 223.530 184.364,218.302 184.232,217.867 184.666 C 217.721 184.812,217.122 184.983,216.537 185.046 C 215.952 185.108,215.366 185.318,215.236 185.512 C 214.914 185.993,211.600 185.941,211.600 185.455 C 211.600 185.241,211.482 185.185,211.337 185.330 C 211.192 185.475,210.851 185.408,210.579 185.182 C 210.307 184.957,209.930 184.807,209.742 184.849 C 209.554 184.892,209.096 184.793,208.724 184.630 C 207.402 184.049,199.917 184.848,199.668 185.596 C 199.593 185.821,199.367 185.903,199.166 185.779 C 198.965 185.655,198.800 185.754,198.800 186.000 C 198.800 186.246,198.641 186.349,198.447 186.229 C 198.253 186.109,197.623 186.382,197.047 186.834 L 196.000 187.658 194.953 186.834 C 194.377 186.382,193.747 186.109,193.553 186.229 C 193.359 186.349,193.200 186.246,193.200 186.000 C 193.200 185.754,193.020 185.664,192.800 185.800 C 192.580 185.936,192.400 185.846,192.400 185.600 C 192.400 185.354,192.220 185.264,192.000 185.400 C 191.780 185.536,191.600 185.444,191.600 185.197 C 191.600 184.935,191.279 184.848,190.834 184.989 C 190.412 185.123,189.952 185.045,189.810 184.816 C 189.474 184.273,182.131 184.264,181.796 184.807 C 181.658 185.030,181.390 185.117,181.200 185.000 C 180.766 184.732,178.000 186.026,178.000 186.498 C 178.000 186.690,177.830 186.742,177.621 186.613 C 177.173 186.336,175.142 189.182,175.441 189.667 C 175.555 189.850,175.471 190.000,175.255 190.000 C 174.914 190.000,174.264 191.848,174.201 193.000 C 174.189 193.220,174.038 193.625,173.866 193.900 C 173.694 194.175,173.656 194.568,173.783 194.772 C 173.909 194.977,173.827 195.260,173.600 195.400 C 173.373 195.540,173.295 195.831,173.428 196.045 C 173.560 196.260,173.451 196.697,173.185 197.018 C 172.920 197.338,172.836 197.600,173.000 197.600 C 173.164 197.600,173.112 197.825,172.885 198.100 C 172.510 198.554,172.018 200.531,171.765 202.600 C 171.711 203.040,171.629 203.445,171.583 203.500 C 171.538 203.555,171.462 203.735,171.415 203.900 C 171.369 204.065,171.202 204.490,171.044 204.844 C 170.886 205.198,170.711 205.926,170.654 206.461 C 170.597 206.996,170.416 207.651,170.251 207.917 C 170.087 208.183,170.056 208.568,170.183 208.772 C 170.309 208.977,170.218 209.265,169.979 209.413 C 169.741 209.560,169.638 209.921,169.750 210.215 C 169.863 210.508,169.797 210.805,169.604 210.874 C 169.412 210.943,169.140 211.810,169.001 212.800 C 168.686 215.042,168.494 216.142,168.372 216.400 C 168.321 216.510,168.260 216.851,168.237 217.158 C 168.168 218.097,166.904 218.670,166.311 218.032 C 165.891 217.580,165.907 217.540,166.400 217.806 C 166.730 217.984,166.604 217.693,166.119 217.159 C 165.153 216.095,163.921 213.459,163.801 212.200 C 163.372 207.690,163.450 206.663,164.224 206.598 C 165.520 206.490,166.800 205.969,166.800 205.549 C 166.800 205.331,166.968 205.257,167.174 205.384 C 167.609 205.653,169.600 203.179,169.802 202.120 C 169.877 201.724,169.973 201.400,170.015 201.400 C 170.298 201.400,170.540 198.442,170.505 195.400 C 170.451 190.627,170.384 190.000,169.934 190.000 C 169.724 190.000,169.644 189.852,169.756 189.672 C 170.113 189.093,168.476 186.860,167.218 186.209 C 166.548 185.863,166.000 185.687,166.000 185.818 C 166.000 185.950,165.703 185.760,165.340 185.398 C 164.978 185.035,164.348 184.825,163.941 184.931 C 163.534 185.038,163.100 184.962,162.977 184.762 C 162.638 184.215,160.092 184.328,159.891 184.900 C 159.688 185.475,159.960 182.387,160.269 180.600 C 160.968 176.555,161.206 172.069,160.782 170.953 C 160.363 169.850,158.790 168.359,158.339 168.637 C 158.153 168.753,158.000 168.646,158.000 168.400 C 158.000 168.154,157.820 168.064,157.600 168.200 C 157.380 168.336,157.200 168.237,157.200 167.981 C 157.200 167.724,156.930 167.618,156.600 167.745 C 156.270 167.871,156.000 167.781,156.000 167.545 C 156.000 167.308,155.736 167.216,155.413 167.340 C 155.090 167.464,154.716 167.388,154.583 167.172 C 154.449 166.956,154.128 166.812,153.870 166.854 C 153.611 166.895,152.890 166.718,152.266 166.461 C 151.643 166.204,150.980 166.089,150.794 166.204 C 150.608 166.319,150.335 166.218,150.187 165.979 C 150.040 165.741,149.673 165.640,149.372 165.755 C 149.072 165.871,148.712 165.781,148.572 165.555 C 148.433 165.330,148.067 165.242,147.760 165.360 C 147.452 165.478,147.200 165.381,147.200 165.145 C 147.200 164.908,146.930 164.818,146.600 164.945 C 146.270 165.071,146.000 164.981,146.000 164.745 C 146.000 164.508,145.730 164.418,145.400 164.545 C 145.070 164.671,144.800 164.581,144.800 164.345 C 144.800 164.108,144.536 164.016,144.213 164.140 C 143.890 164.264,143.512 164.181,143.372 163.955 C 143.233 163.730,142.879 163.638,142.585 163.750 C 142.292 163.863,141.992 163.777,141.920 163.560 C 141.847 163.342,141.386 163.134,140.894 163.097 C 140.402 163.060,140.000 162.869,140.000 162.672 C 140.000 162.475,139.742 162.414,139.426 162.535 C 139.110 162.656,138.795 162.590,138.726 162.389 C 138.657 162.188,138.150 161.973,137.600 161.912 C 137.050 161.850,136.352 161.565,136.048 161.277 C 135.745 160.989,135.262 160.844,134.974 160.955 C 134.687 161.065,134.392 160.977,134.320 160.760 C 134.247 160.542,133.786 160.334,133.294 160.297 C 132.802 160.260,132.400 160.117,132.400 159.978 C 132.400 159.725,129.433 158.728,128.949 158.819 C 128.806 158.846,128.563 158.664,128.409 158.414 C 128.254 158.164,127.739 157.931,127.264 157.895 C 126.789 157.859,126.400 157.710,126.400 157.563 C 126.400 157.237,124.123 156.267,123.356 156.267 C 123.050 156.267,122.800 156.106,122.800 155.910 C 122.800 155.713,122.620 155.664,122.400 155.800 C 122.180 155.936,122.000 155.846,122.000 155.600 C 122.000 155.354,121.820 155.264,121.600 155.400 C 121.380 155.536,121.200 155.446,121.200 155.200 C 121.200 154.954,121.035 154.855,120.834 154.979 C 120.633 155.103,120.408 155.061,120.334 154.884 C 120.162 154.473,113.099 150.976,112.700 151.104 C 112.535 151.157,112.400 151.009,112.400 150.776 C 112.400 150.543,112.220 150.464,112.000 150.600 C 111.780 150.736,111.600 150.646,111.600 150.400 C 111.600 150.154,111.420 150.064,111.200 150.200 C 110.980 150.336,110.800 150.246,110.800 150.000 C 110.800 149.754,110.620 149.664,110.400 149.800 C 110.180 149.936,110.000 149.861,110.000 149.634 C 110.000 149.115,107.790 147.943,107.451 148.283 C 107.313 148.421,107.200 148.341,107.200 148.106 C 107.200 147.627,104.474 145.890,103.700 145.876 C 103.425 145.871,103.200 145.740,103.200 145.585 C 103.200 145.316,97.300 141.338,96.720 141.217 C 96.566 141.184,95.866 140.622,95.165 139.967 C 94.464 139.312,93.815 138.852,93.722 138.945 C 93.630 139.037,92.989 138.597,92.300 137.967 C 91.610 137.337,90.966 136.901,90.870 136.997 C 90.773 137.094,90.337 136.719,89.901 136.165 C 89.465 135.611,89.015 135.251,88.901 135.365 C 88.787 135.479,88.337 135.119,87.901 134.565 C 87.465 134.011,87.019 133.647,86.910 133.757 C 86.801 133.866,86.269 133.430,85.728 132.787 C 85.187 132.144,84.622 131.653,84.472 131.696 C 84.323 131.738,83.300 130.837,82.200 129.693 C 81.100 128.549,80.078 127.610,79.930 127.606 C 79.584 127.598,71.860 119.650,69.555 116.929 C 68.590 115.791,67.564 114.846,67.276 114.829 C 66.988 114.813,66.855 114.634,66.980 114.432 C 67.105 114.230,66.621 113.581,65.904 112.991 C 65.187 112.401,64.870 112.042,65.200 112.192 C 65.530 112.342,65.316 112.019,64.726 111.473 C 64.135 110.928,63.720 110.414,63.803 110.330 C 63.887 110.246,63.175 109.328,62.221 108.289 C 61.267 107.250,60.602 106.394,60.743 106.387 C 60.885 106.379,60.603 106.042,60.117 105.636 C 59.631 105.231,59.342 104.791,59.474 104.659 C 59.606 104.527,59.419 104.305,59.057 104.167 C 58.696 104.028,58.400 103.655,58.400 103.339 C 58.400 103.023,57.969 102.333,57.442 101.806 C 56.916 101.279,56.582 100.752,56.700 100.634 C 56.818 100.516,56.620 100.306,56.260 100.168 C 55.899 100.029,55.705 99.754,55.828 99.555 C 55.950 99.357,55.770 99.087,55.428 98.955 C 55.085 98.824,54.897 98.566,55.011 98.383 C 55.124 98.199,54.898 97.864,54.508 97.637 C 54.119 97.410,53.938 97.219,54.106 97.212 C 54.541 97.195,52.371 94.000,51.923 94.000 C 51.719 94.000,51.650 93.843,51.769 93.650 C 51.888 93.458,51.543 92.824,51.003 92.241 C 50.463 91.658,50.017 91.050,50.014 90.890 C 50.010 90.731,49.750 90.300,49.436 89.934 C 49.122 89.567,48.967 89.167,49.090 89.043 C 49.214 88.920,49.020 88.706,48.660 88.568 C 48.299 88.429,48.105 88.154,48.228 87.955 C 48.350 87.757,48.170 87.487,47.828 87.355 C 47.485 87.224,47.292 86.975,47.399 86.802 C 47.676 86.353,44.446 83.524,43.984 83.810 C 43.773 83.940,43.600 83.874,43.600 83.663 C 43.600 83.215,41.248 83.216,40.035 83.665 M48.441 101.281 C 64.996 126.268,84.009 143.737,109.200 157.102 C 111.290 158.211,113.900 159.597,115.000 160.182 C 123.396 164.647,139.439 170.818,148.200 172.953 C 153.402 174.220,153.044 173.501,152.391 181.383 C 151.876 187.595,152.857 187.007,142.769 187.155 C 140.094 187.195,139.519 187.345,137.884 188.428 L 136.030 189.655 133.363 188.382 C 126.692 185.198,117.919 186.496,113.831 191.272 C 112.137 193.251,111.783 193.208,109.180 190.700 C 104.306 186.003,88.198 184.863,84.430 188.948 C 83.141 190.347,82.259 190.276,79.789 188.574 C 77.754 187.173,74.056 185.990,69.926 185.418 C 65.954 184.868,48.631 165.117,38.338 149.400 C 32.190 140.013,32.138 140.095,41.168 144.951 C 44.596 146.794,49.740 149.524,52.600 151.017 C 55.460 152.510,60.408 155.155,63.596 156.895 C 72.495 161.752,73.136 161.637,68.700 155.980 C 58.502 142.975,57.091 140.861,53.366 133.007 C 47.690 121.038,43.688 107.452,42.925 97.561 C 42.567 92.918,43.169 93.324,48.441 101.281 M357.009 97.700 C 356.859 99.295,356.557 101.300,356.338 102.155 C 356.119 103.010,355.706 104.990,355.420 106.555 C 353.920 114.771,349.677 127.488,345.973 134.868 C 342.946 140.901,341.184 143.476,330.884 156.921 C 327.367 161.513,328.080 161.482,336.920 156.656 C 340.264 154.830,345.610 151.971,348.800 150.301 C 351.990 148.632,356.931 145.991,359.780 144.433 C 367.892 139.996,367.994 140.239,361.869 149.400 C 352.951 162.738,344.795 172.724,334.446 182.976 L 330.433 186.952 326.717 187.090 C 324.672 187.165,322.079 187.520,320.953 187.878 C 319.056 188.482,318.785 188.481,317.245 187.865 C 314.917 186.933,309.090 186.954,307.214 187.901 C 304.164 189.439,304.200 189.179,304.200 209.400 L 304.200 227.400 305.106 228.857 C 306.561 231.197,308.235 231.757,312.864 231.454 C 317.708 231.137,317.728 231.476,313.056 234.550 C 298.110 244.382,279.350 248.876,264.574 246.164 C 263.751 246.013,263.186 246.135,262.853 246.536 C 261.788 247.819,272.334 266.019,279.876 275.911 C 283.789 281.044,283.368 281.161,275.249 277.196 C 263.007 271.218,254.834 265.634,243.400 255.437 C 240.540 252.886,237.930 250.847,237.600 250.906 C 235.896 251.206,237.057 273.959,239.461 287.400 C 240.012 290.480,240.551 293.720,240.659 294.600 L 240.855 296.200 239.982 295.200 C 238.447 293.443,233.679 283.336,231.208 276.600 C 230.723 275.280,230.076 273.570,229.769 272.800 C 227.932 268.195,225.329 257.607,224.211 250.200 C 223.912 248.220,223.487 245.790,223.265 244.800 C 222.732 242.417,222.233 233.556,222.572 232.487 C 222.761 231.894,223.481 231.459,225.012 231.014 C 226.207 230.666,227.814 230.011,228.583 229.557 C 229.915 228.771,230.044 228.764,231.291 229.396 C 237.707 232.649,244.113 232.710,249.523 229.568 C 251.201 228.594,252.093 228.598,252.985 229.583 C 254.739 231.521,269.987 232.557,274.308 231.032 C 275.730 230.531,276.223 230.534,278.233 231.059 C 282.153 232.083,295.263 231.687,297.530 230.477 C 299.837 229.245,300.782 227.188,300.782 223.400 C 300.782 218.118,298.884 215.833,293.881 215.093 C 289.689 214.473,290.000 215.471,289.999 202.651 C 289.997 187.799,289.412 186.801,281.056 187.375 C 279.045 187.513,276.770 187.615,276.000 187.601 C 275.230 187.587,270.762 187.481,266.072 187.366 C 256.667 187.133,254.373 187.491,252.848 189.430 C 251.850 190.699,251.117 190.653,249.486 189.221 L 248.143 188.043 247.658 181.550 C 247.077 173.782,246.766 174.350,252.447 172.808 C 293.969 161.539,327.702 137.252,351.638 101.396 C 356.708 93.802,357.421 93.311,357.009 97.700 M184.000 105.263 C 182.790 105.444,181.170 105.688,180.400 105.804 C 179.630 105.921,178.550 106.020,178.000 106.025 C 177.450 106.030,176.730 106.133,176.400 106.254 C 176.070 106.374,174.917 106.538,173.839 106.618 C 172.760 106.697,171.703 106.937,171.490 107.150 C 171.277 107.363,170.873 107.449,170.592 107.341 C 170.311 107.234,169.967 107.330,169.828 107.555 C 169.688 107.781,169.328 107.871,169.028 107.755 C 168.727 107.640,168.373 107.721,168.240 107.935 C 168.108 108.150,167.660 108.236,167.245 108.128 C 166.830 108.019,166.374 108.118,166.232 108.348 C 166.090 108.577,165.710 108.664,165.387 108.540 C 165.064 108.416,164.800 108.524,164.800 108.781 C 164.800 109.037,164.653 109.157,164.474 109.046 C 164.042 108.779,159.868 110.003,159.555 110.489 C 159.421 110.697,159.196 110.853,159.055 110.834 C 158.915 110.815,158.755 110.814,158.700 110.831 C 158.645 110.847,158.266 110.924,157.857 111.001 C 156.421 111.273,152.800 112.897,152.800 113.270 C 152.800 113.477,152.647 113.553,152.461 113.437 C 152.274 113.322,151.753 113.571,151.303 113.990 C 150.853 114.409,150.380 114.647,150.252 114.519 C 150.124 114.390,149.906 114.580,149.768 114.940 C 149.629 115.301,149.354 115.495,149.155 115.372 C 148.957 115.250,148.687 115.430,148.555 115.772 C 148.424 116.115,148.169 116.305,147.990 116.194 C 147.811 116.083,147.314 116.438,146.885 116.983 C 146.457 117.527,146.026 117.892,145.927 117.794 C 145.829 117.695,145.048 118.331,144.193 119.207 C 143.337 120.083,142.804 120.800,143.008 120.800 C 143.211 120.800,142.975 121.082,142.482 121.427 C 141.990 121.772,141.679 122.204,141.791 122.385 C 141.903 122.567,141.715 122.824,141.372 122.955 C 141.030 123.087,140.861 123.376,140.998 123.597 C 141.135 123.819,141.069 124.000,140.851 124.000 C 140.464 124.000,139.980 125.045,140.039 125.755 C 140.055 125.951,139.868 126.234,139.624 126.385 C 139.200 126.647,138.732 128.617,138.744 130.092 C 138.747 130.473,138.581 130.888,138.375 131.016 C 137.868 131.329,137.896 135.488,138.407 135.804 C 138.630 135.942,138.702 136.234,138.567 136.453 C 138.432 136.672,138.654 137.230,139.061 137.694 C 139.467 138.158,139.575 138.406,139.300 138.245 C 138.707 137.898,138.615 138.639,139.207 139.004 C 139.430 139.142,139.511 139.421,139.386 139.623 C 139.097 140.090,140.363 142.800,140.869 142.800 C 141.077 142.800,141.136 142.980,141.000 143.200 C 140.864 143.420,140.943 143.600,141.176 143.600 C 141.409 143.600,141.600 143.870,141.600 144.200 C 141.600 144.530,141.780 144.800,142.000 144.800 C 142.220 144.800,142.400 145.058,142.400 145.373 C 142.400 145.688,142.942 146.332,143.605 146.803 C 144.267 147.275,144.704 147.832,144.575 148.040 C 144.446 148.249,144.489 148.380,144.670 148.330 C 144.852 148.281,145.703 148.900,146.562 149.706 C 147.421 150.511,148.257 151.088,148.420 150.988 C 148.583 150.887,148.824 151.085,148.955 151.428 C 149.087 151.770,149.357 151.950,149.555 151.828 C 149.754 151.705,150.024 151.885,150.155 152.228 C 150.287 152.570,150.576 152.739,150.797 152.602 C 151.019 152.465,151.200 152.554,151.200 152.800 C 151.200 153.046,151.380 153.136,151.600 153.000 C 151.820 152.864,152.000 152.950,152.000 153.191 C 152.000 153.571,155.073 155.137,156.200 155.331 C 156.420 155.369,156.690 155.508,156.800 155.641 C 157.196 156.117,161.667 157.606,162.029 157.382 C 162.233 157.256,162.400 157.313,162.400 157.509 C 162.400 157.946,165.201 158.846,165.666 158.559 C 165.850 158.446,166.000 158.564,166.000 158.823 C 166.000 159.096,166.335 159.206,166.800 159.084 C 167.239 158.969,167.708 159.050,167.840 159.265 C 167.973 159.479,168.333 159.558,168.640 159.440 C 168.948 159.322,169.200 159.420,169.200 159.659 C 169.200 159.898,169.560 159.999,170.000 159.884 C 170.440 159.769,170.800 159.859,170.800 160.084 C 170.800 160.309,171.160 160.399,171.600 160.284 C 172.039 160.169,172.507 160.250,172.639 160.464 C 172.771 160.677,173.356 160.814,173.940 160.769 C 174.523 160.723,175.270 160.786,175.600 160.909 C 175.930 161.032,176.470 161.151,176.800 161.173 C 178.638 161.296,179.448 161.436,179.860 161.701 C 180.113 161.864,180.743 162.012,181.260 162.029 C 181.777 162.046,183.370 162.147,184.800 162.254 C 193.922 162.935,206.261 163.063,209.881 162.514 C 211.468 162.273,212.276 162.276,212.124 162.523 C 211.979 162.757,212.416 162.812,213.243 162.662 C 213.989 162.527,215.590 162.346,216.800 162.260 C 218.010 162.174,219.630 161.988,220.400 161.847 C 221.170 161.707,222.196 161.591,222.680 161.590 C 223.164 161.589,223.665 161.418,223.793 161.211 C 223.921 161.004,224.272 160.929,224.572 161.045 C 224.873 161.160,225.227 161.079,225.360 160.865 C 225.492 160.650,225.958 160.568,226.394 160.683 C 226.831 160.797,227.506 160.759,227.894 160.599 C 228.282 160.439,229.228 160.243,229.997 160.164 C 230.765 160.085,231.451 159.846,231.522 159.633 C 231.593 159.420,231.892 159.337,232.185 159.450 C 232.479 159.562,232.840 159.459,232.987 159.221 C 233.135 158.982,233.427 158.893,233.638 159.023 C 234.131 159.328,242.800 156.448,242.800 155.979 C 242.800 155.785,243.047 155.720,243.348 155.836 C 243.650 155.951,244.169 155.774,244.501 155.442 C 244.833 155.110,245.216 154.950,245.352 155.086 C 245.489 155.222,245.600 155.113,245.600 154.843 C 245.600 154.573,245.780 154.464,246.000 154.600 C 246.220 154.736,246.400 154.646,246.400 154.400 C 246.400 154.154,246.580 154.064,246.800 154.200 C 247.020 154.336,247.200 154.287,247.200 154.090 C 247.200 153.894,247.436 153.733,247.724 153.733 C 248.451 153.733,253.200 150.463,253.200 149.961 C 253.200 149.737,253.361 149.652,253.557 149.773 C 254.032 150.067,258.883 144.859,258.585 144.376 C 258.457 144.169,258.502 144.000,258.685 144.000 C 259.110 144.000,260.533 141.376,260.533 140.593 C 260.533 140.267,260.703 140.000,260.909 140.000 C 261.116 140.000,261.184 139.736,261.060 139.413 C 260.936 139.090,261.019 138.712,261.245 138.572 C 261.470 138.433,261.560 138.073,261.445 137.772 C 261.329 137.472,261.423 137.110,261.652 136.968 C 261.882 136.826,261.981 136.370,261.872 135.955 C 261.764 135.540,261.838 135.100,262.038 134.977 C 262.519 134.679,262.503 132.511,262.017 132.211 C 261.807 132.081,261.739 131.703,261.866 131.372 C 261.993 131.041,261.760 130.386,261.349 129.916 C 260.937 129.447,260.825 129.194,261.100 129.355 C 261.640 129.671,261.791 129.125,261.300 128.633 C 261.135 128.468,260.978 128.168,260.950 127.967 C 260.923 127.765,260.855 127.510,260.800 127.400 C 260.652 127.105,260.507 126.470,260.450 125.875 C 260.423 125.587,260.051 124.976,259.624 124.518 C 259.197 124.060,258.953 123.580,259.081 123.452 C 259.210 123.324,259.020 123.106,258.660 122.968 C 258.299 122.829,258.095 122.571,258.204 122.393 C 258.437 122.017,254.394 117.473,254.094 117.773 C 253.984 117.883,253.543 117.527,253.115 116.983 C 252.686 116.438,252.189 116.083,252.010 116.194 C 251.831 116.305,251.576 116.115,251.445 115.772 C 251.313 115.430,251.043 115.250,250.845 115.372 C 250.646 115.495,250.376 115.315,250.245 114.972 C 250.113 114.630,249.824 114.461,249.603 114.598 C 249.381 114.735,249.200 114.646,249.200 114.400 C 249.200 114.154,249.020 114.064,248.800 114.200 C 248.580 114.336,248.400 114.250,248.400 114.009 C 248.400 113.629,245.327 112.063,244.200 111.869 C 243.980 111.831,243.694 111.656,243.564 111.480 C 243.434 111.304,242.939 111.131,242.464 111.095 C 241.989 111.059,241.600 110.902,241.600 110.747 C 241.600 110.502,239.813 109.922,238.600 109.774 C 238.380 109.747,237.690 109.515,237.066 109.260 C 236.443 109.004,235.768 108.896,235.566 109.021 C 235.365 109.145,235.200 109.037,235.200 108.781 C 235.200 108.524,234.952 108.410,234.649 108.526 C 234.346 108.642,233.930 108.570,233.725 108.365 C 233.521 108.161,232.600 107.950,231.679 107.897 C 230.758 107.843,230.003 107.665,230.002 107.500 C 230.001 107.335,229.719 107.200,229.376 107.200 C 229.009 107.200,228.857 107.406,229.006 107.700 C 229.145 107.975,228.985 107.862,228.649 107.450 C 228.313 107.037,227.782 106.798,227.468 106.919 C 227.154 107.039,226.740 106.980,226.548 106.788 C 226.356 106.596,224.760 106.335,223.000 106.208 C 221.240 106.080,219.260 105.893,218.600 105.792 C 217.940 105.691,216.500 105.489,215.400 105.343 C 212.421 104.948,186.544 104.883,184.000 105.263 M211.000 111.988 C 223.271 113.071,227.860 113.896,236.000 116.482 C 260.534 124.275,260.470 142.790,235.881 151.015 C 232.016 152.308,225.340 153.987,224.000 154.002 C 223.450 154.009,221.740 154.287,220.200 154.621 C 213.762 156.016,188.157 156.135,182.190 154.798 C 181.114 154.557,178.876 154.188,177.217 153.979 C 152.371 150.843,138.627 136.371,149.472 124.762 C 154.774 119.086,166.104 114.643,179.021 113.175 C 180.975 112.953,183.002 112.664,183.526 112.533 C 186.692 111.738,204.229 111.390,211.000 111.988 M185.800 120.849 C 160.477 122.621,147.083 132.367,159.796 139.771 C 162.438 141.309,171.016 144.400,172.644 144.400 C 173.077 144.400,174.505 144.684,175.816 145.030 C 194.838 150.058,231.510 146.417,242.335 138.425 C 249.755 132.947,241.449 124.790,226.200 122.581 C 225.100 122.421,223.779 122.134,223.265 121.942 C 219.853 120.669,197.638 120.021,185.800 120.849 M213.800 127.915 C 215.560 128.007,217.540 128.113,218.200 128.151 C 218.860 128.188,219.634 128.366,219.919 128.545 C 220.205 128.724,220.694 128.773,221.006 128.653 C 221.319 128.533,221.679 128.604,221.807 128.811 C 221.935 129.018,222.436 129.177,222.920 129.163 C 223.404 129.150,224.610 129.347,225.600 129.601 C 226.590 129.855,227.760 130.114,228.200 130.177 C 228.640 130.240,229.510 130.498,230.134 130.749 C 230.757 131.000,231.432 131.104,231.634 130.979 C 231.835 130.855,232.000 130.963,232.000 131.219 C 232.000 131.476,232.270 131.582,232.600 131.455 C 232.930 131.329,233.200 131.385,233.200 131.582 C 233.200 131.778,233.843 132.150,234.628 132.409 C 235.413 132.668,236.152 133.131,236.270 133.438 C 236.388 133.745,236.673 133.879,236.904 133.736 C 237.151 133.583,237.205 133.669,237.034 133.945 C 236.875 134.202,236.577 134.309,236.372 134.183 C 236.168 134.056,236.000 134.138,236.000 134.364 C 236.000 134.590,235.730 134.671,235.400 134.545 C 235.070 134.418,234.800 134.524,234.800 134.781 C 234.800 135.037,234.635 135.145,234.434 135.021 C 234.233 134.897,233.977 135.021,233.866 135.298 C 233.744 135.601,233.651 135.522,233.632 135.100 C 233.614 134.715,233.412 134.400,233.182 134.400 C 232.953 134.400,232.818 134.711,232.882 135.091 C 232.947 135.471,232.775 135.809,232.500 135.841 C 232.225 135.873,231.865 135.944,231.700 135.997 C 231.535 136.051,231.271 136.076,231.114 136.052 C 230.957 136.028,230.327 136.216,229.714 136.469 C 229.101 136.722,228.375 136.892,228.100 136.847 C 227.825 136.802,227.600 136.963,227.600 137.206 C 227.600 137.449,227.420 137.536,227.200 137.400 C 226.980 137.264,226.593 137.281,226.340 137.437 C 226.087 137.593,225.168 137.785,224.297 137.864 C 223.426 137.942,222.511 138.131,222.264 138.284 C 222.016 138.437,221.451 138.613,221.007 138.675 C 220.563 138.737,219.660 138.873,219.000 138.978 C 218.340 139.083,216.900 139.242,215.800 139.331 C 214.700 139.420,212.720 139.618,211.400 139.772 C 206.813 140.307,189.980 140.080,187.200 139.445 C 186.278 139.235,180.999 138.784,178.900 138.736 C 178.405 138.725,178.000 138.533,178.000 138.311 C 178.000 138.089,177.640 138.001,177.200 138.116 C 176.761 138.231,176.313 138.183,176.205 138.009 C 176.011 137.694,172.657 136.997,171.700 137.072 C 171.425 137.094,171.200 136.932,171.200 136.713 C 171.200 136.494,170.930 136.418,170.600 136.545 C 170.270 136.671,170.000 136.581,170.000 136.345 C 170.000 136.108,169.736 136.016,169.413 136.140 C 169.090 136.264,168.717 136.190,168.585 135.976 C 168.453 135.762,168.177 135.691,167.972 135.817 C 167.768 135.944,167.600 135.871,167.600 135.655 C 167.600 135.439,166.925 135.045,166.100 134.779 C 165.275 134.513,164.386 134.126,164.124 133.919 C 163.587 133.494,163.886 132.282,164.442 132.626 C 164.639 132.748,164.800 132.646,164.800 132.400 C 164.800 132.154,164.980 132.064,165.200 132.200 C 165.420 132.336,165.600 132.295,165.600 132.109 C 165.600 131.923,165.989 131.741,166.464 131.705 C 166.939 131.669,167.434 131.496,167.564 131.320 C 167.694 131.144,168.340 130.942,169.000 130.872 C 169.660 130.802,170.260 130.576,170.334 130.370 C 170.408 130.164,170.593 130.072,170.745 130.166 C 170.897 130.260,172.096 130.068,173.410 129.740 C 174.725 129.412,176.070 129.142,176.400 129.138 C 176.730 129.135,177.270 129.035,177.600 128.915 C 178.965 128.419,181.838 128.157,189.600 127.817 C 193.230 127.659,196.290 127.439,196.400 127.328 C 196.576 127.152,204.080 127.405,213.800 127.915 M47.296 191.143 C 54.962 193.268,57.517 202.961,52.181 209.673 C 50.436 211.867,50.424 211.705,52.829 218.049 C 56.451 227.601,56.510 227.200,51.483 227.200 C 47.530 227.200,47.282 227.009,45.591 222.666 C 43.034 216.096,42.716 215.391,42.087 214.900 C 40.182 213.412,39.600 214.843,39.600 221.014 C 39.600 227.287,39.660 227.200,35.358 227.200 C 30.870 227.200,31.200 228.676,31.200 208.618 C 31.200 195.728,31.322 191.238,31.680 190.880 C 32.510 190.050,44.055 190.244,47.296 191.143 M74.817 191.269 C 81.310 193.462,83.200 197.526,83.200 209.301 C 83.200 223.167,80.064 227.619,70.259 227.672 C 60.752 227.724,57.200 222.716,57.200 209.261 C 57.200 197.836,59.676 192.841,66.162 191.177 C 67.063 190.946,67.980 190.691,68.200 190.610 C 69.359 190.185,72.547 190.502,74.817 191.269 M131.566 192.092 C 134.265 193.381,136.209 195.639,137.275 198.722 C 138.657 202.723,138.664 215.658,137.286 219.645 C 133.806 229.712,119.768 231.176,114.800 221.989 L 113.400 219.400 113.400 209.600 C 113.400 198.616,113.715 197.186,116.825 194.071 C 120.085 190.805,126.943 189.885,131.566 192.092 M104.200 192.446 C 108.574 194.734,110.329 202.175,107.468 206.302 C 106.268 208.033,106.344 208.794,107.842 210.033 C 109.803 211.656,110.730 217.885,109.461 220.913 C 107.460 225.687,104.006 227.199,95.100 227.200 C 85.812 227.200,86.800 229.365,86.800 209.023 L 86.800 192.445 87.700 191.797 C 89.348 190.610,101.612 191.092,104.200 192.446 M244.490 191.618 C 247.879 192.560,250.860 196.078,251.421 199.800 C 251.801 202.326,250.724 203.200,247.233 203.200 C 244.206 203.200,243.913 203.015,243.115 200.591 C 242.149 197.658,239.321 197.205,237.473 199.686 C 236.763 200.641,236.642 201.547,236.481 207.143 C 236.177 217.674,236.979 220.400,240.381 220.400 C 243.789 220.400,245.739 215.506,242.700 214.580 C 240.902 214.032,240.400 213.211,240.400 210.814 C 240.400 207.229,240.530 207.156,246.604 207.287 L 251.800 207.400 251.914 213.200 C 252.102 222.800,249.500 226.829,242.702 227.463 C 231.962 228.466,227.982 223.478,228.014 209.051 C 228.046 194.648,233.733 188.631,244.490 191.618 M366.331 192.294 C 366.687 192.767,366.812 193.839,366.709 195.548 C 366.502 198.997,366.172 199.200,360.773 199.200 C 355.744 199.200,355.500 199.357,355.678 202.468 L 355.800 204.600 359.600 204.847 C 365.061 205.203,365.632 205.724,365.020 209.804 C 364.673 212.118,364.380 212.281,360.193 212.472 C 355.625 212.681,355.600 212.700,355.600 215.744 C 355.600 219.121,355.726 219.200,361.080 219.200 C 366.642 219.200,367.200 219.546,367.200 223.000 C 367.200 226.759,367.094 226.800,357.476 226.800 C 351.307 226.800,349.176 226.671,348.618 226.263 C 347.678 225.575,347.450 193.344,348.378 192.227 C 349.388 191.010,365.410 191.069,366.331 192.294 M162.786 192.374 C 163.014 192.799,163.200 194.226,163.200 195.545 C 163.200 198.722,162.703 199.200,159.400 199.200 C 155.383 199.200,155.600 198.402,155.600 213.206 C 155.600 227.957,155.820 227.200,151.540 227.200 C 147.967 227.200,148.150 227.891,147.814 213.125 C 147.480 198.414,147.697 199.200,143.974 199.200 C 140.639 199.200,140.000 198.571,140.000 195.285 C 140.000 191.374,139.288 191.600,151.600 191.600 C 161.840 191.600,162.392 191.638,162.786 192.374 M189.571 191.985 C 190.358 192.406,190.980 193.731,191.550 196.200 C 191.754 197.080,192.410 199.600,193.008 201.800 C 193.606 204.000,194.334 206.790,194.626 208.000 C 194.917 209.210,195.637 211.910,196.225 214.000 C 196.813 216.090,197.426 218.520,197.587 219.400 C 197.748 220.280,198.193 222.048,198.577 223.328 C 199.558 226.609,199.011 227.200,194.987 227.200 C 191.595 227.200,191.363 227.019,190.200 223.453 L 189.400 221.000 186.345 220.884 C 182.998 220.757,182.000 221.236,182.000 222.969 C 182.000 226.106,180.734 227.200,177.103 227.200 C 172.638 227.200,172.581 226.942,175.011 217.600 C 175.326 216.390,176.309 212.430,177.196 208.800 C 178.084 205.170,179.164 200.940,179.598 199.400 C 180.031 197.860,180.578 195.826,180.814 194.879 C 181.566 191.857,186.368 190.270,189.571 191.985 M209.144 191.970 C 209.866 192.356,210.247 193.127,213.603 201.000 C 217.004 208.978,217.400 208.818,217.400 199.465 C 217.400 191.384,217.315 191.598,220.524 191.606 C 224.938 191.617,224.800 191.029,224.800 209.782 C 224.800 227.798,225.023 226.846,220.748 227.118 C 217.559 227.321,216.875 226.814,215.466 223.200 C 213.686 218.636,210.378 211.420,209.794 210.829 C 208.925 209.950,208.836 210.597,208.712 218.733 C 208.583 227.190,208.578 227.200,204.952 227.200 C 201.401 227.200,201.600 228.253,201.600 209.503 C 201.600 190.292,201.301 191.600,205.688 191.600 C 207.209 191.600,208.764 191.766,209.144 191.970 M273.771 192.229 C 274.621 193.078,274.624 197.102,273.777 198.311 C 273.199 199.137,272.846 199.200,268.806 199.200 C 263.796 199.200,263.200 199.500,263.200 202.029 C 263.200 204.638,264.118 205.200,268.386 205.200 C 272.608 205.200,272.800 205.372,272.800 209.151 C 272.800 212.362,272.192 212.800,267.740 212.800 C 263.804 212.800,263.200 213.206,263.200 215.855 C 263.200 218.999,263.470 219.193,267.914 219.247 C 273.546 219.316,274.093 219.489,274.731 221.404 C 275.384 223.365,275.095 225.995,274.150 226.686 C 273.016 227.515,257.070 227.413,256.229 226.571 C 255.678 226.021,255.600 223.955,255.600 209.945 C 255.600 194.055,255.699 192.748,256.960 191.906 C 257.921 191.265,273.099 191.556,273.771 192.229 M284.800 191.991 C 285.307 192.311,285.431 194.435,285.600 205.685 L 285.800 219.000 287.400 219.096 C 295.850 219.605,296.000 219.678,296.000 223.297 C 296.000 227.232,296.070 227.201,287.038 227.194 C 279.065 227.187,278.807 227.145,278.060 225.726 C 277.274 224.234,277.424 193.629,278.223 192.489 C 278.899 191.523,283.506 191.174,284.800 191.991 M315.900 192.502 C 316.286 192.807,316.400 196.681,316.400 209.426 L 316.400 225.955 315.511 226.577 C 314.991 226.942,313.783 227.200,312.600 227.200 C 311.417 227.200,310.209 226.942,309.689 226.577 L 308.800 225.955 308.800 209.426 C 308.800 192.033,308.769 192.339,310.600 191.890 C 311.723 191.614,315.300 192.027,315.900 192.502 M337.248 192.730 C 343.194 195.080,344.575 198.216,344.587 209.400 C 344.599 220.295,342.892 223.867,336.738 225.828 C 334.124 226.661,323.978 227.095,322.300 226.445 L 321.200 226.020 321.200 209.433 L 321.200 192.845 322.100 192.199 C 323.555 191.155,334.205 191.528,337.248 192.730 M40.229 198.229 C 39.494 198.963,39.344 203.574,40.014 204.826 C 40.785 206.268,45.099 205.482,45.752 203.782 C 47.233 199.922,42.896 195.561,40.229 198.229 M68.300 198.432 C 66.359 199.563,65.327 215.165,66.982 218.366 C 68.376 221.062,71.483 221.211,73.364 218.672 C 74.539 217.086,74.867 203.737,73.799 200.942 C 72.789 198.297,70.402 197.208,68.300 198.432 M95.280 198.480 C 94.549 199.211,94.661 203.803,95.429 204.571 C 97.370 206.513,101.299 203.526,100.578 200.655 C 100.048 198.545,96.622 197.138,95.280 198.480 M123.602 199.137 C 120.182 202.557,120.493 218.387,124.016 220.209 C 128.099 222.320,129.664 219.299,129.712 209.219 C 129.758 199.296,127.375 195.363,123.602 199.137 M329.214 199.974 C 328.541 201.232,328.668 217.666,329.358 218.610 C 330.615 220.329,334.545 219.176,335.883 216.696 C 336.935 214.745,337.148 205.027,336.193 202.527 C 335.062 199.565,330.354 197.843,329.214 199.974 M185.577 206.076 C 185.564 206.144,185.226 207.458,184.826 208.995 C 183.935 212.415,184.058 212.800,186.043 212.800 C 187.453 212.800,187.600 212.702,187.600 211.762 C 187.600 209.847,185.811 204.820,185.577 206.076 M95.300 213.246 C 94.649 213.915,94.634 218.874,95.280 219.520 C 98.213 222.453,103.490 217.223,100.866 213.983 C 99.981 212.889,96.141 212.381,95.300 213.246 M143.213 224.232 C 143.595 229.911,145.148 231.291,151.432 231.531 C 157.322 231.757,159.557 230.475,160.196 226.502 C 160.573 224.161,160.829 224.138,163.265 226.223 C 166.142 228.684,170.362 230.686,173.785 231.213 C 177.774 231.828,177.716 231.733,177.408 237.178 C 177.264 239.720,176.972 242.790,176.759 244.000 C 176.546 245.210,176.107 248.000,175.785 250.200 C 175.178 254.340,174.190 259.100,173.005 263.600 C 169.232 277.919,157.936 303.072,159.621 293.400 C 160.624 287.645,161.313 283.029,161.651 279.800 C 161.859 277.820,162.292 274.413,162.614 272.230 C 163.204 268.235,163.467 251.200,162.947 250.681 C 162.498 250.232,161.291 251.145,156.231 255.764 C 145.753 265.328,137.098 271.235,125.200 276.943 C 116.563 281.086,116.487 281.041,121.230 274.592 C 128.808 264.288,138.362 247.402,137.246 246.286 C 136.984 246.024,135.644 246.044,133.297 246.345 C 123.408 247.613,114.604 246.409,102.963 242.198 C 93.182 238.659,81.200 231.680,81.200 229.522 C 81.200 227.965,83.084 227.731,84.510 229.111 C 88.890 233.350,103.563 232.544,109.441 227.741 C 111.524 226.039,111.904 226.059,113.761 227.960 C 121.120 235.496,137.272 232.563,141.249 222.968 C 142.448 220.074,142.955 220.401,143.213 224.232 M52.291 234.292 C 51.461 234.379,50.201 234.377,49.491 234.289 C 48.781 234.200,49.460 234.129,51.000 234.131 C 52.540 234.133,53.121 234.205,52.291 234.292 " stroke="none" fill="#f4f0f6" fill-rule="evenodd"></path><path id="path1" d="M35.328 93.200 C 35.328 94.630,35.401 95.215,35.489 94.500 C 35.578 93.785,35.578 92.615,35.489 91.900 C 35.401 91.185,35.328 91.770,35.328 93.200 M42.925 97.561 C 43.688 107.452,47.690 121.038,53.366 133.007 C 57.091 140.861,58.502 142.975,68.700 155.980 C 73.136 161.637,72.495 161.752,63.596 156.895 C 60.408 155.155,55.460 152.510,52.600 151.017 C 49.740 149.524,44.596 146.794,41.168 144.951 C 32.138 140.095,32.190 140.013,38.338 149.400 C 48.631 165.117,65.954 184.868,69.926 185.418 C 74.056 185.990,77.754 187.173,79.789 188.574 C 82.259 190.276,83.141 190.347,84.430 188.948 C 86.168 187.064,87.423 186.800,94.687 186.794 C 103.285 186.787,105.831 187.473,109.180 190.700 C 111.783 193.208,112.137 193.251,113.831 191.272 C 117.919 186.496,126.692 185.198,133.363 188.382 L 136.030 189.655 137.884 188.428 C 139.519 187.345,140.094 187.195,142.769 187.155 C 152.857 187.007,151.876 187.595,152.391 181.383 C 153.044 173.501,153.402 174.220,148.200 172.953 C 139.439 170.818,123.396 164.647,115.000 160.182 C 113.900 159.597,111.290 158.211,109.200 157.102 C 84.009 143.737,64.996 126.268,48.441 101.281 C 43.169 93.324,42.567 92.918,42.925 97.561 M351.638 101.396 C 327.702 137.252,293.969 161.539,252.447 172.808 C 246.766 174.350,247.077 173.782,247.658 181.550 L 248.143 188.043 249.486 189.221 C 251.117 190.653,251.850 190.699,252.848 189.430 C 254.373 187.491,256.667 187.133,266.072 187.366 C 270.762 187.481,275.230 187.587,276.000 187.601 C 276.770 187.615,279.045 187.513,281.056 187.375 C 289.412 186.801,289.997 187.799,289.999 202.651 C 290.000 215.471,289.689 214.473,293.881 215.093 C 298.884 215.833,300.782 218.118,300.782 223.400 C 300.782 227.188,299.837 229.245,297.530 230.477 C 295.263 231.687,282.153 232.083,278.233 231.059 C 276.223 230.534,275.730 230.531,274.308 231.032 C 269.987 232.557,254.739 231.521,252.985 229.583 C 252.093 228.598,251.201 228.594,249.523 229.568 C 244.113 232.710,237.707 232.649,231.291 229.396 C 230.044 228.764,229.915 228.771,228.583 229.557 C 227.814 230.011,226.207 230.666,225.012 231.014 C 223.481 231.459,222.761 231.894,222.572 232.487 C 222.233 233.556,222.732 242.417,223.265 244.800 C 223.487 245.790,223.912 248.220,224.211 250.200 C 225.329 257.607,227.932 268.195,229.769 272.800 C 230.076 273.570,230.723 275.280,231.208 276.600 C 233.679 283.336,238.447 293.443,239.982 295.200 L 240.855 296.200 240.659 294.600 C 240.551 293.720,240.012 290.480,239.461 287.400 C 237.057 273.959,235.896 251.206,237.600 250.906 C 237.930 250.847,240.540 252.886,243.400 255.437 C 254.834 265.634,263.007 271.218,275.249 277.196 C 283.368 281.161,283.789 281.044,279.876 275.911 C 272.334 266.019,261.788 247.819,262.853 246.536 C 263.186 246.135,263.751 246.013,264.574 246.164 C 279.350 248.876,298.110 244.382,313.056 234.550 C 317.728 231.476,317.708 231.137,312.864 231.454 C 308.235 231.757,306.561 231.197,305.106 228.857 L 304.200 227.400 304.200 209.400 C 304.200 189.179,304.164 189.439,307.214 187.901 C 309.090 186.954,314.917 186.933,317.245 187.865 C 318.785 188.481,319.056 188.482,320.953 187.878 C 322.079 187.520,324.672 187.165,326.717 187.090 L 330.433 186.952 334.446 182.976 C 344.795 172.724,352.951 162.738,361.869 149.400 C 367.994 140.239,367.892 139.996,359.780 144.433 C 356.931 145.991,351.990 148.632,348.800 150.301 C 345.610 151.971,340.264 154.830,336.920 156.656 C 328.080 161.482,327.367 161.513,330.884 156.921 C 341.184 143.476,342.946 140.901,345.973 134.868 C 349.677 127.488,353.920 114.771,355.420 106.555 C 355.706 104.990,356.119 103.010,356.338 102.155 C 357.160 98.947,357.342 94.800,356.661 94.800 C 356.305 94.800,354.172 97.600,351.638 101.396 M199.107 105.090 C 199.826 105.179,200.906 105.177,201.507 105.086 C 202.108 104.995,201.520 104.922,200.200 104.924 C 198.880 104.926,198.388 105.001,199.107 105.090 M188.539 112.006 C 186.305 112.164,184.050 112.401,183.526 112.533 C 183.002 112.664,180.975 112.953,179.021 113.175 C 153.110 116.120,139.522 128.703,148.672 141.281 C 152.861 147.039,164.994 152.436,177.217 153.979 C 178.876 154.188,181.114 154.557,182.190 154.798 C 188.157 156.135,213.762 156.016,220.200 154.621 C 221.740 154.287,223.450 154.009,224.000 154.002 C 224.550 153.996,226.747 153.556,228.881 153.024 C 266.925 143.555,261.370 117.925,220.200 112.967 C 208.803 111.595,198.685 111.288,188.539 112.006 M215.865 120.998 C 219.420 121.325,222.750 121.750,223.265 121.942 C 223.779 122.134,225.100 122.421,226.200 122.581 C 241.449 124.790,249.755 132.947,242.335 138.425 C 231.510 146.417,194.838 150.058,175.816 145.030 C 174.505 144.684,173.077 144.400,172.644 144.400 C 171.016 144.400,162.438 141.309,159.796 139.771 C 140.994 128.821,175.461 117.280,215.865 120.998 M324.763 123.175 C 324.022 123.821,323.515 124.449,323.636 124.569 C 323.756 124.689,324.463 124.161,325.206 123.394 C 326.853 121.695,326.601 121.570,324.763 123.175 M198.300 127.495 C 199.455 127.576,201.345 127.576,202.500 127.495 C 203.655 127.414,202.710 127.348,200.400 127.348 C 198.090 127.348,197.145 127.414,198.300 127.495 M192.200 140.000 C 193.301 140.473,193.692 140.473,193.400 140.000 C 193.264 139.780,192.758 139.613,192.276 139.628 C 191.431 139.655,191.429 139.669,192.200 140.000 M207.800 140.000 C 207.505 140.478,208.289 140.478,209.400 140.000 C 210.114 139.693,210.085 139.653,209.124 139.628 C 208.532 139.613,207.936 139.780,207.800 140.000 M198.117 140.297 C 199.611 140.374,201.951 140.374,203.317 140.296 C 204.682 140.218,203.460 140.155,200.600 140.155 C 197.740 140.156,196.622 140.220,198.117 140.297 M144.000 147.692 C 144.770 148.477,145.474 149.048,145.564 148.962 C 145.804 148.732,144.340 147.196,143.404 146.696 C 142.958 146.457,143.223 146.900,144.000 147.692 M210.400 162.400 L 208.600 162.680 210.276 162.740 C 211.198 162.773,212.064 162.620,212.200 162.400 C 212.336 162.180,212.392 162.027,212.324 162.060 C 212.256 162.093,211.390 162.246,210.400 162.400 M191.505 162.683 C 192.002 162.779,192.722 162.775,193.105 162.675 C 193.487 162.575,193.080 162.496,192.200 162.501 C 191.320 162.505,191.007 162.587,191.505 162.683 M199.891 163.089 C 200.601 163.177,201.861 163.179,202.691 163.092 C 203.521 163.005,202.940 162.933,201.400 162.931 C 199.860 162.929,199.181 163.000,199.891 163.089 M52.693 180.400 C 53.070 180.840,53.546 181.200,53.751 181.200 C 53.956 181.200,53.798 180.840,53.400 180.400 C 53.002 179.960,52.526 179.600,52.342 179.600 C 52.158 179.600,52.316 179.960,52.693 180.400 M240.093 183.600 C 240.093 184.370,240.175 184.685,240.276 184.300 C 240.376 183.915,240.376 183.285,240.276 182.900 C 240.175 182.515,240.093 182.830,240.093 183.600 M351.790 183.216 C 351.621 183.489,351.923 183.538,352.666 183.360 C 354.199 182.992,354.344 182.800,353.090 182.800 C 352.517 182.800,351.932 182.987,351.790 183.216 M365.400 183.200 C 366.501 183.673,366.892 183.673,366.600 183.200 C 366.464 182.980,365.958 182.813,365.476 182.828 C 364.631 182.855,364.629 182.869,365.400 183.200 M31.680 190.880 C 31.322 191.238,31.200 195.728,31.200 208.618 C 31.200 228.676,30.870 227.200,35.358 227.200 C 39.660 227.200,39.600 227.287,39.600 221.014 C 39.600 214.843,40.182 213.412,42.087 214.900 C 42.716 215.391,43.034 216.096,45.591 222.666 C 47.282 227.009,47.530 227.200,51.483 227.200 C 56.510 227.200,56.451 227.601,52.829 218.049 C 50.424 211.705,50.436 211.867,52.181 209.673 C 56.004 204.864,55.570 196.153,51.346 192.932 C 48.427 190.705,33.421 189.139,31.680 190.880 M68.200 190.610 C 67.980 190.691,67.063 190.946,66.162 191.177 C 59.676 192.841,57.200 197.836,57.200 209.261 C 57.200 222.716,60.752 227.724,70.259 227.672 C 80.064 227.619,83.200 223.167,83.200 209.301 C 83.200 199.761,82.603 197.350,79.460 194.207 C 76.635 191.383,71.000 189.582,68.200 190.610 M122.361 191.184 C 115.215 192.474,113.400 196.204,113.400 209.600 L 113.400 219.400 114.800 221.989 C 119.768 231.176,133.806 229.712,137.286 219.645 C 138.664 215.658,138.657 202.723,137.275 198.722 C 135.236 192.822,129.461 189.903,122.361 191.184 M87.700 191.797 L 86.800 192.445 86.800 209.023 C 86.800 229.365,85.812 227.200,95.100 227.200 C 104.006 227.199,107.460 225.687,109.461 220.913 C 110.730 217.885,109.803 211.656,107.842 210.033 C 106.344 208.794,106.268 208.033,107.468 206.302 C 110.329 202.175,108.574 194.734,104.200 192.446 C 101.612 191.092,89.348 190.610,87.700 191.797 M235.881 191.777 C 229.857 193.926,228.039 197.917,228.014 209.051 C 227.982 223.478,231.962 228.466,242.702 227.463 C 249.500 226.829,252.102 222.800,251.914 213.200 L 251.800 207.400 246.604 207.287 C 240.530 207.156,240.400 207.229,240.400 210.814 C 240.400 213.211,240.902 214.032,242.700 214.580 C 245.739 215.506,243.789 220.400,240.381 220.400 C 236.979 220.400,236.177 217.674,236.481 207.143 C 236.642 201.547,236.763 200.641,237.473 199.686 C 239.321 197.205,242.149 197.658,243.115 200.591 C 243.913 203.015,244.206 203.200,247.233 203.200 C 251.731 203.200,252.661 201.119,250.268 196.404 C 248.046 192.025,241.283 189.850,235.881 191.777 M354.740 191.475 C 350.124 191.590,348.774 191.750,348.378 192.227 C 347.450 193.344,347.678 225.575,348.618 226.263 C 349.176 226.671,351.307 226.800,357.476 226.800 C 367.094 226.800,367.200 226.759,367.200 223.000 C 367.200 219.546,366.642 219.200,361.080 219.200 C 355.726 219.200,355.600 219.121,355.600 215.744 C 355.600 212.700,355.625 212.681,360.193 212.472 C 364.380 212.281,364.673 212.118,365.020 209.804 C 365.632 205.724,365.061 205.203,359.600 204.847 L 355.800 204.600 355.678 202.468 C 355.500 199.357,355.744 199.200,360.773 199.200 C 366.172 199.200,366.502 198.997,366.709 195.548 C 366.967 191.264,366.712 191.177,354.740 191.475 M140.414 192.374 C 138.569 195.821,140.331 199.200,143.974 199.200 C 147.697 199.200,147.480 198.414,147.814 213.125 C 148.150 227.891,147.967 227.200,151.540 227.200 C 155.820 227.200,155.600 227.957,155.600 213.206 C 155.600 198.402,155.383 199.200,159.400 199.200 C 162.703 199.200,163.200 198.722,163.200 195.545 C 163.200 191.335,163.979 191.600,151.600 191.600 C 141.360 191.600,140.808 191.638,140.414 192.374 M182.021 192.379 C 181.593 192.807,181.049 193.932,180.814 194.879 C 180.578 195.826,180.031 197.860,179.598 199.400 C 179.164 200.940,178.084 205.170,177.196 208.800 C 176.309 212.430,175.326 216.390,175.011 217.600 C 172.581 226.942,172.638 227.200,177.103 227.200 C 180.734 227.200,182.000 226.106,182.000 222.969 C 182.000 221.236,182.998 220.757,186.345 220.884 L 189.400 221.000 190.200 223.453 C 191.363 227.019,191.595 227.200,194.987 227.200 C 199.011 227.200,199.558 226.609,198.577 223.328 C 198.193 222.048,197.748 220.280,197.587 219.400 C 197.426 218.520,196.813 216.090,196.225 214.000 C 195.637 211.910,194.917 209.210,194.626 208.000 C 194.334 206.790,193.606 204.000,193.008 201.800 C 192.410 199.600,191.754 197.080,191.550 196.200 C 190.578 191.992,190.091 191.600,185.826 191.600 C 183.361 191.600,182.656 191.744,182.021 192.379 M202.262 192.331 C 201.669 192.987,201.600 194.767,201.600 209.503 C 201.600 228.253,201.401 227.200,204.952 227.200 C 208.578 227.200,208.583 227.190,208.712 218.733 C 208.836 210.597,208.925 209.950,209.794 210.829 C 210.378 211.420,213.686 218.636,215.466 223.200 C 216.875 226.814,217.559 227.321,220.748 227.118 C 225.023 226.846,224.800 227.798,224.800 209.782 C 224.800 191.029,224.938 191.617,220.524 191.606 C 217.315 191.598,217.400 191.384,217.400 199.465 C 217.400 208.818,217.004 208.978,213.603 201.000 C 209.309 190.927,209.875 191.600,205.688 191.600 C 203.518 191.600,202.782 191.757,202.262 192.331 M256.960 191.906 C 255.699 192.748,255.600 194.055,255.600 209.945 C 255.600 223.955,255.678 226.021,256.229 226.571 C 257.070 227.413,273.016 227.515,274.150 226.686 C 275.095 225.995,275.384 223.365,274.731 221.404 C 274.093 219.489,273.546 219.316,267.914 219.247 C 263.470 219.193,263.200 218.999,263.200 215.855 C 263.200 213.206,263.804 212.800,267.740 212.800 C 272.192 212.800,272.800 212.362,272.800 209.151 C 272.800 205.372,272.608 205.200,268.386 205.200 C 264.118 205.200,263.200 204.638,263.200 202.029 C 263.200 199.500,263.796 199.200,268.806 199.200 C 273.994 199.200,274.400 198.905,274.400 195.140 C 274.400 191.566,274.485 191.599,265.271 191.606 C 260.942 191.609,257.202 191.744,256.960 191.906 M278.223 192.489 C 277.424 193.629,277.274 224.234,278.060 225.726 C 278.807 227.145,279.065 227.187,287.038 227.194 C 296.070 227.201,296.000 227.232,296.000 223.297 C 296.000 219.678,295.850 219.605,287.400 219.096 L 285.800 219.000 285.600 205.685 C 285.372 190.482,285.700 191.616,281.523 191.606 C 279.206 191.601,278.762 191.720,278.223 192.489 M310.600 191.890 C 308.769 192.339,308.800 192.033,308.800 209.426 L 308.800 225.955 309.689 226.577 C 310.209 226.942,311.417 227.200,312.600 227.200 C 313.783 227.200,314.991 226.942,315.511 226.577 L 316.400 225.955 316.400 209.426 C 316.400 196.681,316.286 192.807,315.900 192.502 C 315.300 192.027,311.723 191.614,310.600 191.890 M322.100 192.199 L 321.200 192.845 321.200 209.433 L 321.200 226.020 322.300 226.445 C 323.978 227.095,334.124 226.661,336.738 225.828 C 342.892 223.867,344.599 220.295,344.587 209.400 C 344.575 198.216,343.194 195.080,337.248 192.730 C 334.205 191.528,323.555 191.155,322.100 192.199 M374.540 194.800 C 374.540 196.670,374.609 197.435,374.693 196.500 C 374.777 195.565,374.777 194.035,374.693 193.100 C 374.609 192.165,374.540 192.930,374.540 194.800 M44.769 198.636 C 46.746 200.299,46.521 203.903,44.371 205.015 C 41.128 206.692,39.600 205.552,39.600 201.455 C 39.600 197.517,41.930 196.246,44.769 198.636 M72.278 198.599 C 74.622 200.241,75.466 215.835,73.364 218.672 C 71.483 221.211,68.376 221.062,66.982 218.366 C 66.126 216.710,66.140 201.662,67.000 200.000 C 68.034 198.001,70.492 197.349,72.278 198.599 M99.301 198.794 C 101.288 200.356,101.049 203.208,98.821 204.524 C 96.165 206.093,94.800 205.050,94.800 201.451 C 94.800 197.963,96.768 196.801,99.301 198.794 M127.264 198.434 C 130.610 200.225,130.856 217.681,127.568 220.023 C 123.631 222.826,121.400 219.127,121.400 209.800 C 121.401 200.424,123.474 196.406,127.264 198.434 M334.254 199.968 C 337.890 202.185,337.873 216.230,334.232 218.616 C 332.801 219.554,330.046 219.550,329.358 218.610 C 328.668 217.666,328.541 201.232,329.214 199.974 C 329.770 198.934,332.553 198.931,334.254 199.968 M186.974 208.569 C 188.021 212.170,187.882 212.800,186.043 212.800 C 184.058 212.800,183.935 212.415,184.826 208.995 C 185.226 207.458,185.564 206.144,185.577 206.076 C 185.694 205.450,186.469 206.833,186.974 208.569 M371.803 212.392 C 371.664 212.827,371.706 213.461,371.896 213.800 C 372.144 214.243,372.252 214.020,372.281 213.008 C 372.326 211.422,372.173 211.225,371.803 212.392 M100.866 213.983 C 103.490 217.223,98.213 222.453,95.280 219.520 C 94.634 218.874,94.649 213.915,95.300 213.246 C 96.141 212.381,99.981 212.889,100.866 213.983 M141.249 222.968 C 137.272 232.563,121.120 235.496,113.761 227.960 C 111.904 226.059,111.524 226.039,109.441 227.741 C 103.563 232.544,88.890 233.350,84.510 229.111 C 83.084 227.731,81.200 227.965,81.200 229.522 C 81.200 231.680,93.182 238.659,102.963 242.198 C 114.604 246.409,123.408 247.613,133.297 246.345 C 135.644 246.044,136.984 246.024,137.246 246.286 C 138.362 247.402,128.808 264.288,121.230 274.592 C 116.487 281.041,116.563 281.086,125.200 276.943 C 137.098 271.235,145.753 265.328,156.231 255.764 C 161.291 251.145,162.498 250.232,162.947 250.681 C 163.467 251.200,163.204 268.235,162.614 272.230 C 162.292 274.413,161.859 277.820,161.651 279.800 C 161.313 283.029,160.624 287.645,159.621 293.400 C 157.936 303.072,169.232 277.919,173.005 263.600 C 174.190 259.100,175.178 254.340,175.785 250.200 C 176.107 248.000,176.546 245.210,176.759 244.000 C 176.972 242.790,177.264 239.720,177.408 237.178 C 177.716 231.733,177.774 231.828,173.785 231.213 C 170.362 230.686,166.142 228.684,163.265 226.223 C 160.829 224.138,160.573 224.161,160.196 226.502 C 159.557 230.475,157.322 231.757,151.432 231.531 C 145.148 231.291,143.595 229.911,143.213 224.232 C 142.955 220.401,142.448 220.074,141.249 222.968 M374.909 222.400 C 374.909 223.390,374.987 223.795,375.082 223.300 C 375.178 222.805,375.178 221.995,375.082 221.500 C 374.987 221.005,374.909 221.410,374.909 222.400 M49.491 234.289 C 50.201 234.377,51.461 234.379,52.291 234.292 C 53.121 234.205,52.540 234.133,51.000 234.131 C 49.460 234.129,48.781 234.200,49.491 234.289 M330.100 234.276 C 330.485 234.376,331.115 234.376,331.500 234.276 C 331.885 234.175,331.570 234.093,330.800 234.093 C 330.030 234.093,329.715 234.175,330.100 234.276 M362.900 234.276 C 363.285 234.376,363.915 234.376,364.300 234.276 C 364.685 234.175,364.370 234.093,363.600 234.093 C 362.830 234.093,362.515 234.175,362.900 234.276 M69.105 234.683 C 69.602 234.779,70.322 234.775,70.705 234.675 C 71.087 234.575,70.680 234.496,69.800 234.501 C 68.920 234.505,68.607 234.587,69.105 234.683 M214.800 235.800 C 214.800 236.350,214.955 236.800,215.145 236.800 C 215.334 236.800,215.403 236.350,215.298 235.800 C 215.193 235.250,215.038 234.800,214.953 234.800 C 214.869 234.800,214.800 235.250,214.800 235.800 M215.700 247.887 C 214.911 248.170,215.118 248.800,216.000 248.800 C 216.440 248.800,216.800 248.631,216.800 248.424 C 216.800 247.912,216.305 247.670,215.700 247.887 M122.392 254.285 C 123.378 254.379,124.442 254.668,124.757 254.928 C 125.214 255.304,125.290 255.279,125.134 254.800 C 124.994 254.372,124.315 254.188,122.769 254.158 C 120.874 254.121,120.826 254.137,122.392 254.285 M275.700 254.676 C 276.085 254.776,276.715 254.776,277.100 254.676 C 277.485 254.575,277.170 254.493,276.400 254.493 C 275.630 254.493,275.315 254.575,275.700 254.676 M244.487 272.600 C 244.491 273.040,244.632 273.940,244.800 274.600 C 245.074 275.678,245.106 275.698,245.113 274.800 C 245.117 274.250,244.976 273.350,244.800 272.800 C 244.549 272.016,244.481 271.973,244.487 272.600 M145.467 316.267 C 145.101 316.632,145.129 318.400,145.500 318.400 C 145.665 318.400,145.800 317.860,145.800 317.200 C 145.800 316.540,145.785 316.000,145.767 316.000 C 145.748 316.000,145.613 316.120,145.467 316.267 " stroke="none" fill="#421087" fill-rule="evenodd"></path></g></svg>