<?xml version="1.0" standalone="no"?>
<!DOCTYPE svg PUBLIC "-//W3C//DTD SVG 20010904//EN"
 "http://www.w3.org/TR/2001/REC-SVG-20010904/DTD/svg10.dtd">
<svg version="1.0" xmlns="http://www.w3.org/2000/svg"
 width="500.000000pt" height="500.000000pt" viewBox="0 0 500.000000 500.000000"
 preserveAspectRatio="xMidYMid meet">

<g transform="translate(0.000000,500.000000) scale(0.100000,-0.100000)"
fill="#000000" stroke="none">
<path d="M0 2500 l0 -2500 2500 0 2500 0 0 2500 0 2500 -2500 0 -2500 0 0
-2500z m733 1480 c128 -251 273 -425 492 -592 207 -157 431 -267 679 -333 49
-14 91 -27 94 -29 2 -3 -2 -20 -9 -38 -9 -21 -14 -66 -13 -123 3 -202 102
-342 292 -411 36 -13 70 -28 76 -34 13 -13 -9 -438 -29 -549 -41 -228 -121
-426 -272 -670 -92 -149 -164 -253 -170 -248 -2 3 13 83 35 179 63 271 82 405
82 569 0 60 -3 109 -7 109 -5 0 -19 -9 -33 -20 -14 -11 -28 -20 -31 -20 -3 0
-43 -22 -89 -49 -142 -85 -491 -238 -474 -209 4 7 31 40 59 73 114 133 285
380 285 412 0 9 -16 13 -54 13 -78 0 -196 18 -311 46 -127 32 -255 74 -255 84
0 4 39 18 88 30 96 24 251 81 252 93 0 4 -43 29 -95 57 -169 87 -377 240 -552
403 -62 58 -81 87 -45 69 24 -13 120 -45 222 -75 202 -60 225 -66 229 -62 2 3
-9 15 -25 27 -160 124 -406 406 -558 642 -71 109 -90 152 -51 113 14 -15 191
-138 233 -162 9 -5 35 -21 57 -35 64 -41 146 -82 151 -77 3 3 -20 43 -50 90
-108 167 -174 325 -225 537 -31 127 -54 316 -37 299 3 -3 29 -52 59 -109z
m3592 25 c-7 -85 -43 -255 -84 -390 -26 -87 -113 -265 -181 -369 -28 -43 -49
-80 -46 -83 12 -12 293 159 424 257 23 17 42 29 42 26 0 -2 -28 -49 -62 -103
-127 -201 -264 -367 -459 -561 l-133 -131 105 29 c141 39 223 64 293 89 33 11
61 19 63 17 6 -6 -142 -142 -238 -218 -134 -107 -264 -191 -380 -248 -90 -44
-98 -50 -79 -60 38 -20 204 -77 278 -95 85 -20 83 -23 -33 -59 -161 -51 -394
-96 -492 -96 -29 0 -43 -4 -43 -13 0 -32 226 -351 319 -449 19 -21 33 -40 30
-42 -14 -15 -372 150 -527 242 -56 34 -105 62 -107 62 -3 0 -5 -48 -5 -107 0
-180 33 -397 98 -646 16 -59 26 -107 23 -107 -9 0 -162 234 -230 353 -176 305
-224 494 -247 964 -7 157 -5 167 49 179 50 10 144 61 189 102 118 107 164 293
113 458 -6 19 2 23 96 48 227 61 477 181 654 315 227 171 382 356 515 614 30
59 57 107 59 107 2 0 0 -38 -4 -85z m-1495 -285 c212 -44 340 -128 340 -223 0
-138 -195 -234 -545 -267 -234 -22 -551 27 -679 105 -88 53 -116 91 -116 155
0 131 148 205 505 254 79 11 404 -5 495 -24z"/>
<path d="M960 3453 c0 -4 18 -41 41 -82 64 -118 185 -277 299 -393 69 -71 100
-108 88 -108 -25 0 -150 43 -280 96 -60 25 -112 43 -115 40 -8 -7 235 -246
302 -296 33 -25 67 -52 77 -60 9 -8 60 -42 113 -75 53 -33 99 -64 102 -69 7
-11 -224 -1 -311 14 -33 5 -61 8 -63 6 -6 -6 92 -65 183 -110 95 -47 233 -96
327 -118 31 -7 57 -15 57 -18 0 -9 -144 -75 -220 -101 -36 -12 -69 -26 -74
-31 -11 -9 -21 -9 221 -17 l182 -6 -33 -82 c-19 -45 -55 -116 -80 -158 -42
-69 -44 -76 -24 -70 43 13 170 90 258 156 l88 66 7 -148 c4 -82 4 -188 1 -236
l-6 -88 20 43 c68 149 98 299 107 547 l6 180 -76 38 c-170 84 -297 299 -297
503 l0 72 -92 30 c-240 78 -508 225 -677 373 -105 91 -131 112 -131 102z"/>
<path d="M3938 3372 c-151 -127 -314 -233 -456 -296 -110 -49 -295 -116 -319
-116 -22 0 -23 -3 -23 -89 0 -154 -61 -294 -179 -412 -62 -61 -93 -81 -165
-109 l-29 -11 7 -182 c4 -100 12 -204 17 -232 26 -136 33 -167 62 -252 16 -51
33 -93 36 -93 3 0 7 100 8 221 1 122 4 224 7 226 3 3 25 -10 48 -29 87 -69
282 -188 309 -188 5 0 -6 24 -25 53 -42 65 -104 196 -112 235 l-6 29 192 5
c123 3 195 9 203 17 8 8 6 11 -10 11 -23 0 -76 21 -215 84 -58 26 -75 46 -38
46 75 0 443 154 515 216 l30 26 -30 -6 c-41 -8 -250 -26 -302 -26 -24 0 -43 3
-43 8 0 4 31 25 68 47 112 66 257 181 383 303 66 63 125 124 130 134 9 17 6
16 -43 -4 -91 -37 -347 -122 -352 -117 -3 3 39 50 93 105 114 115 239 280 300
394 23 44 40 80 37 80 -2 0 -47 -35 -98 -78z"/>
<path d="M2255 3620 c-203 -31 -305 -75 -305 -131 0 -125 571 -197 905 -114
92 23 184 71 191 101 13 51 -14 72 -135 109 -185 55 -435 69 -656 35z"/>
</g>
</svg>
